<svg width="40" height="40" viewBox="0 0 40 40" fill="none" xmlns="http://www.w3.org/2000/svg">
<g clip-path="url(#clip0_101_3013)">
<rect width="40" height="40" rx="20" fill="#212121"/>
<g clip-path="url(#clip1_101_3013)">
<path d="M0 0H40V40H0V0Z" fill="#FFD15C"/>
<path d="M40 20C40 31.0456 31.0456 40 20 40C8.9544 40 0 31.0456 0 20C0 8.9544 8.9544 0 20 0C31.0456 0 40 8.9544 40 20Z" fill="#FFD15C"/>
<path d="M34.7182 16.9373C33.7064 15.5205 32.6326 14.7779 31.9604 14.4171C31.7208 13.9773 31.459 13.55 31.176 13.1367C30.3486 11.9271 29.4864 10.8783 28.6138 10.0193C27.7978 9.21592 26.9464 8.55312 26.0832 8.04912C24.5814 7.17192 23.0236 6.74392 21.321 6.74072H21.3016C19.7428 6.74072 18.3192 7.09532 17.1316 7.44272C16.7899 7.54365 16.449 7.64766 16.1092 7.75472C15.2518 8.02152 14.442 8.27392 13.7586 8.38632C13.293 8.46312 12.928 8.63872 12.6742 8.90832C12.4342 9.16292 12.2916 9.50332 12.2498 9.92012C12.1718 10.6995 12.4482 11.7437 13.0492 12.9399C14.2514 15.3327 16.5542 17.9669 18.9158 19.6513C19.1582 19.8248 19.3881 20.015 19.604 20.2205L19.5944 20.2225C17.7578 20.4849 16.801 22.4585 16.4136 23.5249C16.3126 23.8031 16.5876 24.0523 16.8682 23.9575C17.981 23.5825 20.2238 22.9821 21.5368 23.6975C21.782 24.8707 21.6786 26.0209 21.236 26.9197C20.9644 27.4709 20.5776 27.9117 20.086 28.2295C19.556 28.5725 18.916 28.7643 18.1828 28.7997C17.3888 28.8379 16.4884 28.6919 15.507 28.3651C14.4394 28.0097 13.267 27.4373 12.0222 26.6637L11.9992 26.6495L11.9752 26.6367C11.9604 26.6288 11.9458 26.6204 11.9314 26.6117C13.713 24.4647 12.6266 21.2223 12.192 20.1533C12.134 20.0107 11.9374 20.0119 11.859 20.1445C10.841 21.8679 8.75299 21.7401 8.79019 23.7927L8.78759 23.7881C7.19159 22.4901 6.00659 24.2169 4.02039 23.9575C3.86759 23.9377 3.74579 24.0921 3.82239 24.2255C4.39539 25.2231 6.27139 28.0605 9.04579 27.9969C9.15579 28.1171 9.28319 28.2561 9.38179 28.3651L9.71659 28.7347C11.0762 30.2349 12.5652 31.4255 14.1424 32.2733C15.6116 33.0629 17.1578 33.5571 18.7384 33.7425C19.212 33.798 19.6861 33.8257 20.1608 33.8255C22.9128 33.8255 25.6484 32.9003 27.9918 31.1547C29.2982 30.1844 30.4278 28.9963 31.3312 27.6427C32.2536 26.2599 32.8994 24.7633 33.2504 23.1945C33.4829 22.1613 33.5808 21.1024 33.5416 20.0441C34.4118 19.7851 35.3728 20.5525 35.843 21.0029C35.9578 21.1127 36.1472 21.0445 36.142 20.8857C36.1176 20.1653 35.911 18.6081 34.7182 16.9373ZM26.788 30.0387C24.423 31.7153 21.6426 32.4615 18.926 32.1429C17.5476 31.9813 16.1948 31.5479 14.905 30.8545C13.6738 30.1927 12.4962 29.2911 11.397 28.1697C13.8534 29.6615 16.0484 30.4159 17.9302 30.4159C18.0414 30.4159 18.1515 30.4133 18.2604 30.4081C19.2808 30.3589 20.1892 30.0809 20.9608 29.5815C21.6998 29.1035 22.2784 28.4471 22.6804 27.6313C23.0384 26.9047 23.2376 26.0875 23.2724 25.2017C23.3048 24.3749 23.1934 23.5299 22.9408 22.6901C22.4106 20.9279 21.3132 19.3829 19.8512 18.3401C18.7682 17.5675 17.6818 16.5661 16.7102 15.4445C15.924 14.5371 15.2554 13.6029 14.7538 12.7137V12.7125C14.7538 12.7125 14.7498 12.7065 14.7436 12.6955L14.7284 12.6681C14.6452 12.5127 14.4264 11.9967 15.1158 11.8981C21.63 10.9679 34.8844 23.3433 26.788 30.0387Z" fill="#212121"/>
<path d="M15.1153 11.9002C14.4257 11.9986 14.6447 12.5142 14.7279 12.67L14.7431 12.6974L14.7535 12.7144V12.7156C15.2549 13.6048 15.9235 14.539 16.7097 15.4464C17.6817 16.5682 18.7677 17.5694 19.8507 18.3418C21.3131 19.3848 22.4103 20.9298 22.9403 22.692C23.1929 23.5318 23.3043 24.3768 23.2719 25.2036C23.2371 26.0892 23.0381 26.9066 22.6801 27.6332C22.2779 28.449 21.6995 29.1054 20.9603 29.5834C20.1887 30.0826 19.2803 30.3608 18.2599 30.41C18.1499 30.4154 18.0398 30.4181 17.9297 30.418C16.0479 30.418 13.8531 29.6634 11.3965 28.1716C12.4957 29.293 13.6733 30.1946 14.9045 30.8564C16.1943 31.5498 17.5471 31.9832 18.9255 32.1448C21.6423 32.4632 24.4227 31.717 26.7877 30.0406C34.8841 23.3452 21.6295 10.9698 15.1153 11.9002Z" fill="white"/>
<path d="M10.5469 26.6993C10.547 26.6997 10.5501 26.7002 10.5561 26.7009C10.5497 26.6996 10.5469 26.6993 10.5469 26.6993Z" fill="#212121"/>
<path d="M21.8938 11.4496C21.6678 11.1328 21.2152 10.2734 22.6176 10.2734C24.02 10.2734 26.163 11.8614 26.5988 12.4488C26.463 12.8068 25.5582 12.8868 25.106 12.8522C24.6534 12.8174 23.8844 12.743 23.2964 12.4488C22.708 12.1546 22.12 11.7662 21.8938 11.4496Z" fill="white"/>
</g>
</g>
<defs>
<clipPath id="clip0_101_3013">
<rect width="40" height="40" rx="20" fill="white"/>
</clipPath>
<clipPath id="clip1_101_3013">
<rect width="40" height="40" fill="white"/>
</clipPath>
</defs>
</svg>
