<svg width="40" height="40" viewBox="0 0 40 40" fill="none" xmlns="http://www.w3.org/2000/svg">
<rect width="40" height="40" rx="20" fill="#6DC4FE"/>
<g clip-path="url(#clip0_101_2982)">
<path d="M20.0147 35.2527C2.42795 34.8905 0.762939 28.4217 0.762939 19.9953C0.762939 11.5688 2.68811 4.91888 20.0147 4.73781C37.3413 4.55673 39.2665 11.5688 39.2665 19.9953C39.2665 28.4217 37.6015 35.615 20.0147 35.2527Z" fill="#6DC4FE"/>
<path fill-rule="evenodd" clip-rule="evenodd" d="M14.6469 29.9547C14.6425 29.9547 14.6381 29.9547 14.6338 29.9547C10.0177 29.9547 6.27563 26.2126 6.27563 21.5966C6.27563 17.595 9.08772 14.2502 12.8436 13.4307C14.739 10.7841 17.8397 9.05957 21.3434 9.05957C26.7436 9.05957 31.187 13.1569 31.7343 18.4124C33.1733 19.6091 34.0894 21.413 34.0894 23.4308C34.0894 27.034 31.1685 29.9548 27.5655 29.9548C27.5536 29.9548 27.5418 29.9548 27.5299 29.9547H21.3883C21.3733 29.9548 21.3583 29.9548 21.3434 29.9548C21.3283 29.9548 21.3133 29.9548 21.2983 29.9547H14.6469ZM19.1492 17.5226C20.1399 17.5226 20.943 16.7195 20.943 15.7288C20.943 14.7381 20.1399 13.935 19.1492 13.935C18.1586 13.935 17.3555 14.7381 17.3555 15.7288C17.3555 16.7195 18.1586 17.5226 19.1492 17.5226ZM26.3236 17.5226C27.3142 17.5226 28.1173 16.7195 28.1173 15.7288C28.1173 14.7381 27.3142 13.935 26.3236 13.935C25.333 13.935 24.5299 14.7381 24.5299 15.7288C24.5299 16.7195 25.333 17.5226 26.3236 17.5226ZM26.0029 19.1468C26.6839 19.051 27.2587 18.9701 27.6048 18.9701C28.4538 18.9701 29.1422 19.6585 29.1422 20.5076C29.1422 24.0453 26.2742 26.9133 22.7364 26.9133C19.1987 26.9133 16.3307 24.0453 16.3307 20.5076C16.3307 19.6585 17.019 18.9701 17.8681 18.9701C18.2141 18.9701 18.7889 19.051 19.4699 19.1468C20.4597 19.2861 21.6739 19.457 22.7364 19.457C23.7989 19.457 25.0131 19.2861 26.0029 19.1468ZM22.7362 25.6322C24.1401 25.6322 25.4122 25.0676 26.3376 24.1531C26.7494 23.746 26.6141 23.05 26.0827 22.8206C25.1849 22.4332 24.0152 22.1987 22.736 22.1987C21.4567 22.1987 20.287 22.4332 19.3892 22.8206C18.8578 23.05 18.7229 23.7463 19.1347 24.1531C20.0604 25.0676 21.3323 25.6322 22.7362 25.6322Z" fill="#F7F9FB"/>
</g>
<defs>
<clipPath id="clip0_101_2982">
<rect width="40" height="32" fill="white" transform="translate(0 4)"/>
</clipPath>
</defs>
</svg>
