<svg width="32" height="32" viewBox="0 0 32 32" fill="none" xmlns="http://www.w3.org/2000/svg">
<path fill-rule="evenodd" clip-rule="evenodd" d="M20.5967 22.7175C21.1824 23.3033 22.1322 23.3033 22.718 22.7175C23.3038 22.1317 23.3038 21.182 22.718 20.5962L18.1218 16L22.718 11.4038C23.3038 10.818 23.3038 9.86827 22.718 9.28249C22.1322 8.6967 21.1824 8.6967 20.5967 9.28249L16.0005 13.8787L11.4043 9.28249C10.8185 8.6967 9.86873 8.6967 9.28294 9.28249C8.69716 9.86827 8.69716 10.818 9.28294 11.4038L13.8791 16L9.28294 20.5962C8.69716 21.182 8.69716 22.1317 9.28294 22.7175C9.86873 23.3033 10.8185 23.3033 11.4043 22.7175L16.0005 18.1213L20.5967 22.7175Z" fill="#212121"/>
</svg>
