<svg width="24" height="25" viewBox="0 0 24 25" fill="none" xmlns="http://www.w3.org/2000/svg">
<path d="M19.4544 6.31094C18.1121 5.69708 16.6868 5.24971 15.1989 5C15.0116 5.32253 14.8035 5.75952 14.6579 6.10286C13.0754 5.87395 11.5043 5.87395 9.94367 6.10286C9.79801 5.75952 9.5795 5.32253 9.40262 5C7.90442 5.24971 6.47902 5.69708 5.14622 6.31094C2.45149 10.2854 1.7232 14.1661 2.08735 17.995C3.87689 19.2955 5.60403 20.0862 7.30099 20.6066C7.71716 20.0447 8.09173 19.4412 8.41426 18.8066C7.8004 18.5777 7.21775 18.2967 6.65592 17.9638C6.80159 17.8598 6.94726 17.7454 7.0825 17.6308C10.4743 19.1812 14.1481 19.1812 17.4982 17.6308C17.6439 17.7454 17.7792 17.8598 17.9249 17.9638C17.3631 18.2967 16.7804 18.5777 16.1666 18.8066C16.4892 19.4412 16.8636 20.0447 17.2798 20.6066C18.9756 20.0862 20.7132 19.2955 22.4934 17.995C22.9408 13.5628 21.7849 9.7132 19.4544 6.31094ZM8.88244 15.6332C7.86281 15.6332 7.03046 14.7073 7.03046 13.5732C7.03046 12.4391 7.842 11.5131 8.88244 11.5131C9.91246 11.5131 10.7552 12.4391 10.7344 13.5732C10.7344 14.7073 9.91246 15.6332 8.88244 15.6332ZM15.7192 15.6332C14.6995 15.6332 13.8661 14.7073 13.8661 13.5732C13.8661 12.4391 14.6787 11.5131 15.7192 11.5131C16.7492 11.5131 17.592 12.4391 17.5711 13.5732C17.5711 14.7073 16.7596 15.6332 15.7192 15.6332Z" fill="#212121"/>
</svg>
