<svg width="24" height="24" viewBox="0 0 24 24" fill="none" xmlns="http://www.w3.org/2000/svg">
<path d="M19.4544 5.95743C18.1121 5.34357 16.6868 4.89619 15.1989 4.64648C15.0116 4.96901 14.8035 5.406 14.6579 5.74934C13.0754 5.52044 11.5043 5.52044 9.94367 5.74934C9.79801 5.406 9.5795 4.96901 9.40262 4.64648C7.90442 4.89619 6.47902 5.34357 5.14622 5.95743C2.45149 9.93188 1.7232 13.8126 2.08735 17.6414C3.87689 18.942 5.60403 19.7327 7.30099 20.2531C7.71716 19.6912 8.09173 19.0877 8.41426 18.4531C7.8004 18.2241 7.21775 17.9432 6.65592 17.6103C6.80159 17.5063 6.94726 17.3919 7.0825 17.2773C10.4743 18.8277 14.1481 18.8277 17.4982 17.2773C17.6439 17.3919 17.7792 17.5063 17.9249 17.6103C17.3631 17.9432 16.7804 18.2241 16.1666 18.4531C16.4892 19.0877 16.8636 19.6912 17.2798 20.2531C18.9756 19.7327 20.7132 18.942 22.4934 17.6414C22.9408 13.2093 21.7849 9.35968 19.4544 5.95743ZM8.88244 15.2797C7.86281 15.2797 7.03046 14.3538 7.03046 13.2197C7.03046 12.0856 7.842 11.1596 8.88244 11.1596C9.91246 11.1596 10.7552 12.0856 10.7344 13.2197C10.7344 14.3538 9.91246 15.2797 8.88244 15.2797ZM15.7192 15.2797C14.6995 15.2797 13.8661 14.3538 13.8661 13.2197C13.8661 12.0856 14.6787 11.1596 15.7192 11.1596C16.7492 11.1596 17.592 12.0856 17.5711 13.2197C17.5711 14.3538 16.7596 15.2797 15.7192 15.2797Z" fill="#212121"/>
</svg>
