<svg width="64" height="64" viewBox="0 0 64 64" fill="none" xmlns="http://www.w3.org/2000/svg">
<rect width="64" height="64" rx="16" fill="white"/>
<path fill-rule="evenodd" clip-rule="evenodd" d="M31.9973 26C24.1735 26 17.7473 31.991 17.0585 39.6347C16.9841 40.4597 16.255 41.0683 15.4299 40.994C14.6048 40.9196 13.9962 40.1905 14.0706 39.3653C14.8975 30.1895 22.6069 23 31.9973 23C41.3876 23 49.0972 30.1895 49.924 39.3653C49.9984 40.1905 49.3898 40.9196 48.5647 40.994C47.7395 41.0683 47.0103 40.4597 46.9361 39.6347C46.2473 31.991 39.821 26 31.9973 26ZM31.9973 32C27.4645 32 23.7122 35.3523 23.0885 39.7124C22.9712 40.5324 22.2113 41.1021 21.3912 40.9849C20.5711 40.8676 20.0014 40.1077 20.1187 39.2876C20.9508 33.4709 25.9506 29 31.9973 29C38.044 29 43.0438 33.4709 43.8758 39.2876C43.9931 40.1077 43.4234 40.8676 42.6033 40.9849C41.7833 41.1021 41.0234 40.5324 40.9061 39.7124C40.2824 35.3523 36.53 32 31.9973 32ZM31.9973 38C30.6933 38 29.5802 38.8327 29.1676 39.9998C28.8915 40.781 28.0346 41.1904 27.2535 40.9142C26.4724 40.6382 26.063 39.7812 26.3391 39.0002C27.162 36.6717 29.3825 35 31.9973 35C34.6121 35 36.8326 36.6717 37.6554 39.0002C37.9316 39.7812 37.5221 40.6382 36.7411 40.9142C35.96 41.1904 35.1031 40.781 34.8269 39.9998C34.4144 38.8327 33.3011 38 31.9973 38Z" fill="#141515"/>
</svg>
