<svg width="64" height="64" viewBox="0 0 64 64" fill="none" xmlns="http://www.w3.org/2000/svg">
<rect width="64" height="64" rx="16" fill="white"/>
<path fill-rule="evenodd" clip-rule="evenodd" d="M18.5 20C19.3284 20 20 20.6716 20 21.5V38C20 39.6569 21.3431 41 23 41H45.5C46.3284 41 47 41.6716 47 42.5C47 43.3284 46.3284 44 45.5 44H23C19.6863 44 17 41.3137 17 38V21.5C17 20.6716 17.6716 20 18.5 20ZM36.5 26C35.6716 26 35 25.3284 35 24.5C35 23.6716 35.6716 23 36.5 23H42.5C43.3284 23 44 23.6716 44 24.5V30.5C44 31.3284 43.3284 32 42.5 32C41.6716 32 41 31.3284 41 30.5V28.1213L36.0606 33.0606C34.6464 34.4748 32.3536 34.4748 30.9394 33.0606C30.6967 32.8179 30.3033 32.8179 30.0606 33.0606L25.5607 37.5606C24.9749 38.1464 24.0251 38.1464 23.4393 37.5606C22.8536 36.9749 22.8536 36.0251 23.4393 35.4394L27.9393 30.9394C29.3535 29.5252 31.6464 29.5252 33.0606 30.9394C33.3033 31.1821 33.6967 31.1821 33.9394 30.9394L38.8787 26H36.5Z" fill="#141515"/>
</svg>
