<svg width="64" height="64" viewBox="0 0 64 64" fill="none" xmlns="http://www.w3.org/2000/svg">
<rect width="64" height="64" rx="16" fill="white"/>
<path fill-rule="evenodd" clip-rule="evenodd" d="M44 22.25C44 21.1195 43.3543 20.2452 42.6427 19.6442C41.924 19.0374 40.973 18.5585 39.9292 18.1857C37.8284 17.4355 35.0249 17 32 17C28.9751 17 26.1716 17.4355 24.0709 18.1857C23.027 18.5585 22.0761 19.0374 21.3574 19.6442C20.6457 20.2452 20 21.1195 20 22.25V29C20 30.1306 20.6457 31.0047 21.3574 31.6058C22.0761 32.2125 23.027 32.6915 24.0709 33.0643C26.1716 33.8146 28.9751 34.25 32 34.25C35.0249 34.25 37.8284 33.8146 39.9292 33.0643C40.973 32.6915 41.924 32.2125 42.6427 31.6058C43.3543 31.0047 44 30.1306 44 29V22.25ZM23.2929 21.9364C23.1056 22.0945 23.0348 22.2002 23.0095 22.25C23.0348 22.2998 23.1056 22.4055 23.2929 22.5636C23.6369 22.8541 24.2236 23.1832 25.0799 23.489C26.7794 24.096 29.2259 24.5 32 24.5C34.7741 24.5 37.2206 24.096 38.9201 23.489C39.7764 23.1832 40.3631 22.8541 40.7072 22.5636C40.8944 22.4055 40.9652 22.2998 40.9906 22.25C40.9652 22.2002 40.8944 22.0945 40.7072 21.9364C40.3631 21.6459 39.7764 21.3168 38.9201 21.011C37.2206 20.404 34.7741 20 32 20C29.2259 20 26.7794 20.404 25.0799 21.011C24.2236 21.3168 23.6369 21.6459 23.2929 21.9364Z" fill="#141515"/>
<path d="M40.9382 35.8895C41.9594 35.5247 43.038 35.0302 44 34.3457V41.75C44 42.8806 43.3543 43.7548 42.6427 44.3558C41.924 44.9626 40.973 45.4415 39.9292 45.8143C37.8284 46.5646 35.0249 47 32 47C28.9751 47 26.1716 46.5646 24.0709 45.8143C23.027 45.4415 22.0761 44.9626 21.3574 44.3558C20.6457 43.7548 20 42.8806 20 41.75V34.3457C20.962 35.0302 22.0406 35.5247 23.0619 35.8895C25.5638 36.7831 28.7244 37.25 32 37.25C35.2757 37.25 38.4362 36.7831 40.9382 35.8895Z" fill="#141515"/>
</svg>
