<svg width="36" height="36" viewBox="0 0 36 36" fill="none" xmlns="http://www.w3.org/2000/svg">
<g clip-path="url(#clip0_188_2369)">
<path d="M7.19853 24.1417C7.39164 23.9486 7.65717 23.8359 7.93879 23.8359H33.4776C33.9443 23.8359 34.1777 24.3992 33.8478 24.7291L28.8028 29.7741C28.6097 29.9672 28.3441 30.0798 28.0625 30.0798H2.52365C2.05697 30.0798 1.82363 29.5166 2.15352 29.1867L7.19853 24.1417Z" fill="#212121"/>
<path d="M7.19756 5.30576C7.39871 5.11265 7.66424 5 7.93781 5H33.4767C33.9434 5 34.1767 5.56324 33.8468 5.89314L28.8018 10.9381C28.6087 11.1313 28.3431 11.2439 28.0615 11.2439H2.52268C2.05599 11.2439 1.82265 10.6807 2.15255 10.3508L7.19756 5.30576Z" fill="#212121"/>
<path d="M28.8028 14.6632C28.6097 14.4701 28.3441 14.3574 28.0625 14.3574H2.52365C2.05697 14.3574 1.82363 14.9207 2.15352 15.2506L7.19853 20.2956C7.39164 20.4887 7.65717 20.6013 7.93879 20.6013H33.4776C33.9443 20.6013 34.1777 20.0381 33.8478 19.7082L28.8028 14.6632Z" fill="#212121"/>
</g>
<defs>
<clipPath id="clip0_188_2369">
<rect width="32" height="25.0802" fill="white" transform="translate(2 5)"/>
</clipPath>
</defs>
</svg>
