<svg width="36" height="36" viewBox="0 0 36 36" fill="none" xmlns="http://www.w3.org/2000/svg">
<path d="M13 24.666C7.47715 24.666 3 20.1888 3 14.666C3 9.14317 7.47715 4.66602 13 4.66602C17.0995 4.66602 20.6228 7.13288 22.1667 10.6632M23 17.9993V21.3327M23 21.3327V24.666M23 21.3327H19.6667M23 21.3327H26.3333M33 21.3327C33 26.8555 28.5228 31.3327 23 31.3327C18.6402 31.3327 14.9318 28.5425 13.5635 24.6503C13.1985 23.6122 13 22.4957 13 21.3327C13 15.999 17.1758 11.6405 22.4365 11.3483C22.623 11.3379 22.8108 11.3327 23 11.3327C28.5228 11.3327 33 15.8098 33 21.3327Z" stroke="#212121" stroke-width="4" stroke-linecap="round" stroke-linejoin="round"/>
</svg>
