<svg width="20" height="21" viewBox="0 0 20 21" fill="none" xmlns="http://www.w3.org/2000/svg">
<g clip-path="url(#clip0_188_2576)">
<path fill-rule="evenodd" clip-rule="evenodd" d="M20 10.3535C20 15.8764 15.5228 20.3535 10 20.3535C4.47715 20.3535 0 15.8764 0 10.3535C0 4.83067 4.47715 0.353516 10 0.353516C15.5228 0.353516 20 4.83067 20 10.3535ZM10.3584 7.73596C9.38571 8.14051 7.44178 8.97784 4.52658 10.248C4.05319 10.4362 3.80521 10.6204 3.78264 10.8004C3.74449 11.1048 4.12559 11.2246 4.64456 11.3878C4.71515 11.41 4.78829 11.433 4.86328 11.4574C5.37386 11.6233 6.06069 11.8175 6.41774 11.8252C6.74162 11.8322 7.10311 11.6987 7.5022 11.4246C10.226 9.58602 11.632 8.65669 11.7203 8.63666C11.7825 8.62252 11.8688 8.60475 11.9273 8.65672C11.9858 8.70869 11.98 8.80711 11.9738 8.83352C11.9361 8.99447 10.4401 10.3853 9.66593 11.105C9.42459 11.3294 9.25339 11.4885 9.2184 11.5249C9.14 11.6063 9.06011 11.6833 8.98332 11.7574C8.50897 12.2146 8.15326 12.5575 9.00301 13.1175C9.41137 13.3866 9.73814 13.6091 10.0641 13.8311C10.4201 14.0736 10.7752 14.3154 11.2347 14.6166C11.3517 14.6933 11.4635 14.773 11.5724 14.8506C11.9867 15.146 12.359 15.4114 12.8188 15.369C13.086 15.3445 13.3621 15.0932 13.5022 14.3438C13.8335 12.5728 14.4847 8.73556 14.6352 7.15433C14.6484 7.01579 14.6318 6.83849 14.6185 6.76066C14.6051 6.68283 14.5773 6.57194 14.4761 6.48985C14.3563 6.39263 14.1714 6.37213 14.0886 6.37359C13.7125 6.38021 13.1355 6.58086 10.3584 7.73596Z" fill="#212121"/>
</g>
<defs>
<clipPath id="clip0_188_2576">
<rect width="20" height="20" fill="white" transform="translate(0 0.353516)"/>
</clipPath>
</defs>
</svg>
