<svg width="24" height="24" viewBox="0 0 24 24" fill="none" xmlns="http://www.w3.org/2000/svg">
<path d="M12.0431 4C12.5667 4.00288 13.8767 4.01554 15.2687 4.07129L15.7622 4.09282C17.1638 4.15918 18.564 4.27253 19.2585 4.46618C20.185 4.72641 20.9131 5.48578 21.1591 6.44835C21.551 7.97687 21.6 10.9602 21.6061 11.6821L21.607 11.8318V11.8422C21.607 11.8422 21.607 11.8459 21.607 11.8528L21.6061 12.0025C21.6 12.7244 21.551 15.7078 21.1591 17.2362C20.9097 18.2024 20.1814 18.9618 19.2585 19.2185C18.564 19.412 17.1638 19.5254 15.7622 19.5918L15.2687 19.6132C13.8767 19.6691 12.5667 19.6817 12.0431 19.6846L11.8132 19.6854H11.803C11.803 19.6854 11.7996 19.6854 11.7928 19.6854L11.5632 19.6846C10.455 19.6785 5.82129 19.6285 4.34756 19.2185C3.42118 18.9581 2.69306 18.1988 2.44693 17.2362C2.05511 15.7078 2.00612 12.7244 2 12.0025V11.6821C2.00612 10.9602 2.05511 7.97687 2.44693 6.44835C2.69647 5.48221 3.42459 4.72286 4.34756 4.46618C5.82129 4.05611 10.455 4.00609 11.5632 4H12.0431ZM9.84227 8.41092V15.2737L15.7246 11.8422L9.84227 8.41092Z" fill="#212121"/>
</svg>
