<svg width="46" height="46" viewBox="0 0 46 46" fill="none" xmlns="http://www.w3.org/2000/svg">
<g clip-path="url(#clip0_194_2702)">
<rect x="3" y="3" width="40" height="40" rx="20" fill="black"/>
<g clip-path="url(#clip1_194_2702)">
<path d="M3 3H43V43H3V3Z" fill="#FFD15C"/>
<path d="M43 23C43 34.0456 34.0456 43 23 43C11.9544 43 3 34.0456 3 23C3 11.9544 11.9544 3 23 3C34.0456 3 43 11.9544 43 23Z" fill="#FFD15C"/>
<path d="M37.7182 19.9368C36.7064 18.52 35.6326 17.7774 34.9604 17.4166C34.7208 16.9768 34.459 16.5495 34.176 16.1362C33.3486 14.9266 32.4864 13.8778 31.6138 13.0188C30.7978 12.2154 29.9464 11.5526 29.0832 11.0486C27.5814 10.1714 26.0236 9.74343 24.321 9.74023H24.3016C22.7428 9.74023 21.3192 10.0948 20.1316 10.4422C19.7899 10.5432 19.449 10.6472 19.1092 10.7542C18.2518 11.021 17.442 11.2734 16.7586 11.3858C16.293 11.4626 15.928 11.6382 15.6742 11.9078C15.4342 12.1624 15.2916 12.5028 15.2498 12.9196C15.1718 13.699 15.4482 14.7432 16.0492 15.9394C17.2514 18.3322 19.5542 20.9664 21.9158 22.6508C22.1582 22.8243 22.3881 23.0145 22.604 23.22L22.5944 23.222C20.7578 23.4844 19.801 25.458 19.4136 26.5244C19.3126 26.8026 19.5876 27.0518 19.8682 26.957C20.981 26.582 23.2238 25.9816 24.5368 26.697C24.782 27.8702 24.6786 29.0204 24.236 29.9192C23.9644 30.4704 23.5776 30.9112 23.086 31.229C22.556 31.572 21.916 31.7638 21.1828 31.7992C20.3888 31.8374 19.4884 31.6914 18.507 31.3646C17.4394 31.0092 16.267 30.4368 15.0222 29.6632L14.9992 29.649L14.9752 29.6362C14.9604 29.6283 14.9458 29.6199 14.9314 29.6112C16.713 27.4642 15.6266 24.2218 15.192 23.1528C15.134 23.0102 14.9374 23.0114 14.859 23.144C13.841 24.8674 11.753 24.7396 11.7902 26.7922L11.7876 26.7876C10.1916 25.4896 9.00659 27.2164 7.02039 26.957C6.86759 26.9372 6.74579 27.0916 6.82239 27.225C7.39539 28.2226 9.27139 31.06 12.0458 30.9964C12.1558 31.1166 12.2832 31.2556 12.3818 31.3646L12.7166 31.7342C14.0762 33.2344 15.5652 34.425 17.1424 35.2728C18.6116 36.0624 20.1578 36.5566 21.7384 36.742C22.212 36.7975 22.6861 36.8252 23.1608 36.825C25.9128 36.825 28.6484 35.8998 30.9918 34.1542C32.2982 33.1839 33.4278 31.9959 34.3312 30.6422C35.2536 29.2594 35.8994 27.7628 36.2504 26.194C36.4829 25.1608 36.5808 24.1019 36.5416 23.0436C37.4118 22.7846 38.3728 23.552 38.843 24.0024C38.9578 24.1122 39.1472 24.044 39.142 23.8852C39.1176 23.1648 38.911 21.6076 37.7182 19.9368ZM29.788 33.0382C27.423 34.7148 24.6426 35.461 21.926 35.1424C20.5476 34.9808 19.1948 34.5474 17.905 33.854C16.6738 33.1922 15.4962 32.2906 14.397 31.1692C16.8534 32.661 19.0484 33.4154 20.9302 33.4154C21.0414 33.4154 21.1515 33.4128 21.2604 33.4076C22.2808 33.3584 23.1892 33.0804 23.9608 32.581C24.6998 32.103 25.2784 31.4466 25.6804 30.6308C26.0384 29.9042 26.2376 29.087 26.2724 28.2012C26.3048 27.3744 26.1934 26.5294 25.9408 25.6896C25.4106 23.9274 24.3132 22.3824 22.8512 21.3396C21.7682 20.567 20.6818 19.5656 19.7102 18.444C18.924 17.5366 18.2554 16.6024 17.7538 15.7132V15.712C17.7538 15.712 17.7498 15.706 17.7436 15.695L17.7284 15.6676C17.6452 15.5122 17.4264 14.9962 18.1158 14.8976C24.63 13.9674 37.8844 26.3428 29.788 33.0382Z" fill="black"/>
<path d="M18.1153 14.9012C17.4257 14.9996 17.6447 15.5152 17.7279 15.671L17.7431 15.6984L17.7535 15.7154V15.7166C18.2549 16.6058 18.9235 17.54 19.7097 18.4474C20.6817 19.5692 21.7677 20.5704 22.8507 21.3428C24.3131 22.3858 25.4103 23.9308 25.9403 25.693C26.1929 26.5328 26.3043 27.3778 26.2719 28.2046C26.2371 29.0902 26.0381 29.9076 25.6801 30.6342C25.2779 31.45 24.6995 32.1064 23.9603 32.5844C23.1887 33.0836 22.2803 33.3618 21.2599 33.411C21.1499 33.4164 21.0398 33.4191 20.9297 33.419C19.0479 33.419 16.8531 32.6644 14.3965 31.1726C15.4957 32.294 16.6733 33.1956 17.9045 33.8574C19.1943 34.5508 20.5471 34.9842 21.9255 35.1458C24.6423 35.4642 27.4227 34.718 29.7877 33.0416C37.8841 26.3462 24.6295 13.9708 18.1153 14.9012Z" fill="white"/>
<path d="M13.5469 29.6993C13.547 29.6997 13.5501 29.7002 13.5561 29.7009C13.5497 29.6996 13.5469 29.6993 13.5469 29.6993Z" fill="black"/>
<path d="M24.8938 14.4496C24.6678 14.1328 24.2152 13.2734 25.6176 13.2734C27.02 13.2734 29.163 14.8614 29.5988 15.4488C29.463 15.8068 28.5582 15.8868 28.106 15.8522C27.6534 15.8174 26.8844 15.743 26.2964 15.4488C25.708 15.1546 25.12 14.7662 24.8938 14.4496Z" fill="white"/>
</g>
</g>
<rect x="1.5" y="1.5" width="43" height="43" rx="21.5" stroke="white" stroke-width="3"/>
<defs>
<clipPath id="clip0_194_2702">
<rect x="3" y="3" width="40" height="40" rx="20" fill="white"/>
</clipPath>
<clipPath id="clip1_194_2702">
<rect width="40" height="40" fill="white" transform="translate(3 3)"/>
</clipPath>
</defs>
</svg>
