<svg width="46" height="46" viewBox="0 0 46 46" fill="none" xmlns="http://www.w3.org/2000/svg">
<rect x="1.5" y="1.5" width="43" height="43" rx="21.5" fill="#6DC4FE"/>
<rect x="1.5" y="1.5" width="43" height="43" rx="21.5" stroke="white" stroke-width="3"/>
<g clip-path="url(#clip0_194_2712)">
<path d="M23.0145 38.2527C5.42771 37.8905 3.76269 31.4217 3.7627 22.9953C3.7627 14.5688 5.68787 7.91888 23.0145 7.73781C40.3411 7.55673 42.2662 14.5688 42.2662 22.9953C42.2662 31.4217 40.6012 38.615 23.0145 38.2527Z" fill="#6DC4FE"/>
<path fill-rule="evenodd" clip-rule="evenodd" d="M17.6467 32.9537C17.6422 32.9537 17.6379 32.9537 17.6335 32.9537C13.0174 32.9537 9.27539 29.2116 9.27539 24.5956C9.27539 20.594 12.0875 17.2492 15.8434 16.4297C17.7388 13.7832 20.8395 12.0586 24.3431 12.0586C29.7434 12.0586 34.1868 16.1559 34.7341 21.4114C36.1731 22.6081 37.0892 24.412 37.0892 26.4299C37.0892 30.033 34.1683 32.9538 30.5653 32.9538C30.5533 32.9538 30.5415 32.9538 30.5296 32.9537H24.3881C24.3731 32.9538 24.3581 32.9538 24.3431 32.9538C24.3281 32.9538 24.3131 32.9538 24.2981 32.9537H17.6467ZM22.149 20.5216C23.1397 20.5216 23.9428 19.7185 23.9428 18.7278C23.9428 17.7372 23.1397 16.934 22.149 16.934C21.1583 16.934 20.3553 17.7372 20.3553 18.7278C20.3553 19.7185 21.1583 20.5216 22.149 20.5216ZM29.3234 20.5216C30.314 20.5216 31.1171 19.7185 31.1171 18.7278C31.1171 17.7372 30.314 16.934 29.3234 16.934C28.3327 16.934 27.5296 17.7372 27.5296 18.7278C27.5296 19.7185 28.3327 20.5216 29.3234 20.5216ZM29.0027 22.1459C29.6837 22.05 30.2584 21.9692 30.6045 21.9692C31.4535 21.9692 32.142 22.6575 32.142 23.5066C32.142 27.0444 29.274 29.9124 25.7362 29.9124C22.1984 29.9124 19.3304 27.0444 19.3304 23.5066C19.3304 22.6575 20.0188 21.9692 20.8678 21.9692C21.2139 21.9692 21.7886 22.05 22.4697 22.1459C23.4595 22.2852 24.6737 22.456 25.7362 22.456C26.7987 22.456 28.0128 22.2852 29.0027 22.1459ZM25.7359 28.6312C27.1398 28.6312 28.4119 28.0666 29.3373 27.1521C29.7492 26.7451 29.6139 26.0491 29.0824 25.8196C28.1846 25.4322 27.0149 25.1977 25.7357 25.1977C24.4565 25.1977 23.2868 25.4322 22.389 25.8196C21.8575 26.0491 21.7227 26.7453 22.1345 27.1521C23.0602 28.0666 24.332 28.6312 25.7359 28.6312Z" fill="#F7F9FB"/>
</g>
<defs>
<clipPath id="clip0_194_2712">
<rect width="40" height="32" fill="white" transform="translate(3 7)"/>
</clipPath>
</defs>
</svg>
