<svg width="160" height="160" viewBox="0 0 160 160" fill="none" xmlns="http://www.w3.org/2000/svg">
<path d="M101.198 119.038C101.056 118.302 100.748 117.608 100.297 117.009C99.8458 116.41 99.2643 115.921 98.5968 115.58C97.9294 115.239 97.1928 115.055 96.4431 115.04C95.6935 115.027 94.95 115.183 94.2702 115.499C88.8298 117.66 91.1725 126.155 97.2104 125.029C97.8679 124.902 98.4939 124.646 99.0516 124.275C99.6092 123.904 100.088 123.426 100.459 122.869C100.83 122.311 101.087 121.685 101.214 121.028C101.34 120.37 101.335 119.694 101.198 119.038ZM96.3371 124.357C90.187 123.872 90.9605 115.824 96.1651 115.739C101.838 115.646 102.163 123.959 96.3371 124.357Z" fill="black"/>
<path d="M93.55 120.057C93.5423 120.742 93.8019 121.402 94.2743 121.899C94.7459 122.396 95.3926 122.69 96.077 122.717C96.4303 122.734 96.7836 122.678 97.1147 122.553C97.4457 122.427 97.7476 122.236 98.0018 121.989C98.2553 121.743 98.4558 121.446 98.5909 121.119C98.7261 120.792 98.7922 120.441 98.786 120.087C98.7976 116.612 93.6721 116.712 93.55 120.057ZM94.9886 121.627C94.6084 121.357 94.3373 120.959 94.2236 120.507C94.1099 120.054 94.1614 119.576 94.3688 119.158C94.5761 118.739 94.9256 118.409 95.355 118.225C95.7836 118.042 96.2644 118.017 96.7099 118.156C97.0809 118.267 97.4104 118.486 97.6554 118.785C97.9012 119.085 98.0518 119.451 98.0871 119.836C98.1178 120.209 98.0418 120.584 97.8682 120.916C97.6946 121.248 97.4304 121.524 97.1062 121.711C96.7821 121.898 96.4111 121.991 96.0371 121.976C95.6622 121.961 95.3005 121.84 94.9917 121.627H94.9886Z" fill="black"/>
<path fill-rule="evenodd" clip-rule="evenodd" d="M86.8847 88.984C90.8051 89.9679 94.5142 90.8128 97.8186 91.4834C99.1558 91.7553 100.38 91.9834 101.498 92.1915C111.267 94.0127 112.855 94.3084 110.378 108.726C110.364 108.811 110.342 108.943 110.315 109.107C110.187 109.893 109.936 111.423 109.736 112.136C109.653 112.434 109.633 112.659 109.619 112.821C109.595 113.085 109.586 113.18 109.341 113.143C108.057 112.948 107.186 112.841 106.399 112.745C104.57 112.521 103.189 112.352 98.1273 111.259C97.4391 111.11 96.7632 110.94 96.108 110.774C93.0649 110.004 90.4618 109.346 89.0416 111.537C88.4233 112.492 85.5414 122.198 86.1958 123.774C86.7535 125.118 87.4432 126.16 89.9595 127.111C94.8407 128.793 99.8555 130.06 104.95 130.898C104.99 130.905 105.022 130.907 105.041 130.923C105.116 130.989 104.999 131.277 104.483 132.963C104.233 133.777 103.994 134.559 103.764 135.311C99.228 150.157 98.2641 153.312 90.5801 151.789C89.8212 151.639 89.0785 151.493 88.345 151.349C81.5106 150.01 75.5099 148.834 64.9474 145.391C52.2739 141.26 41.5852 136.442 35.2338 132.878C27.4621 128.517 28.0738 123.898 29.858 110.428C30.1282 108.387 30.4253 106.143 30.7244 103.667C30.7289 103.628 30.722 103.597 30.7347 103.581C30.793 103.504 31.2649 103.744 35.1578 105.116C36.4055 105.556 36.8785 105.566 37.1796 105.799C37.6769 106.183 37.7057 107.174 39.9783 111.706C40.6204 112.987 44.3457 119.94 45.8795 122.07C46.9733 123.589 53.3876 125.066 55.1965 125.463C55.6309 125.558 55.6374 125.616 55.6533 125.755C55.6545 125.766 55.6558 125.777 55.6573 125.789C55.668 125.883 55.677 125.968 55.6855 126.049C55.7634 126.784 55.804 127.167 56.7703 130.75C56.9599 131.452 57.126 131.812 57.219 132.014C57.3328 132.26 57.3371 132.27 57.1405 132.381L57.125 132.39C56.3385 132.837 55.8606 133.108 55.698 134.083C55.5875 134.567 55.6287 135.074 55.8159 135.534C56.0031 135.994 56.3273 136.385 56.7446 136.655C57.1618 136.924 57.6518 137.059 58.1482 137.04C58.6445 137.022 59.1231 136.851 59.5191 136.551C59.9149 136.251 60.209 135.837 60.3613 135.364C60.5136 134.891 60.5167 134.383 60.3703 133.908C60.2239 133.433 59.9351 133.016 59.5429 132.711C59.1507 132.406 58.6743 132.229 58.1782 132.204C58.023 132.195 57.9187 132.191 57.8389 132.145C57.5035 131.949 57.6016 131.009 56.1689 125.847C56.0846 125.545 56.1385 125.412 56.0978 125.322C55.9902 125.082 55.2211 125.139 49.4819 123.159C48.8046 122.925 48.2917 122.755 47.8996 122.626C46.7325 122.24 46.6356 122.209 46.4556 121.894C46.0777 121.236 37.3706 105.857 38.1011 106.066C42.6749 107.371 43.2163 107.437 43.4094 107.732C43.4493 107.793 43.4744 107.864 43.5169 107.957C43.8871 108.769 46.1714 113.117 47.3574 115.002C47.6001 115.389 47.7736 115.64 47.8899 115.809C48.1232 116.146 48.1261 116.151 47.9949 116.248C47.6359 116.524 47.365 116.899 47.2147 117.326C47.0644 117.753 47.0414 118.214 47.1484 118.655C47.2555 119.095 47.488 119.494 47.8177 119.804C48.1473 120.115 48.56 120.323 49.0057 120.403C52.0972 120.849 52.7632 116.482 49.9973 115.849C48.8006 115.575 48.6039 116.008 48.4457 115.994C48.2166 115.974 48.0682 115.02 45.0815 109.635C44.4196 108.44 44.0953 107.976 44.1864 107.871C44.2705 107.773 44.7075 107.982 45.5585 108.207C49.3963 109.222 49.7914 109.154 49.9503 109.318C49.9902 109.358 50.0153 109.414 50.0764 109.505C51.2325 111.23 51.5854 111.771 51.9609 112.296C52.3366 112.821 52.7349 113.33 53.9829 114.992C54.1009 115.148 54.2118 115.298 54.3175 115.44C55.0762 116.462 55.5652 117.121 56.4477 117.526C62.2422 120.198 63.426 119.779 63.9695 120.195C64.2178 120.386 64.3325 120.751 64.6924 121.665C66.0219 125.04 66.4074 125.468 66.3232 125.603C66.3007 125.639 66.2449 125.653 66.1648 125.697C65.6465 125.999 65.2379 126.458 64.9984 127.008C64.759 127.557 64.7011 128.17 64.8334 128.754C64.9657 129.339 65.2811 129.867 65.7338 130.26C66.1865 130.654 66.7529 130.893 67.3507 130.942C67.9483 130.991 68.5462 130.848 69.0572 130.534C69.5682 130.22 69.9657 129.752 70.192 129.196C70.4183 128.64 70.4615 128.028 70.3153 127.446C70.1692 126.865 69.8413 126.345 69.3793 125.962C69.0348 125.669 68.6234 125.464 68.1814 125.368C67.7394 125.271 67.2803 125.284 66.8446 125.406C66.7401 125.421 66.7146 125.328 66.6226 124.991C66.4711 124.437 66.1394 123.222 64.9781 120.747C64.8913 120.444 64.7283 120.168 64.5047 119.946C64.2811 119.725 64.0043 119.563 63.7008 119.479C60.9823 118.509 59.9192 118.115 59.3627 117.909C58.8783 117.729 58.7778 117.692 58.3034 117.541C56.1804 116.87 56.0706 116.73 55.854 116.429C54.8878 115.083 53.5687 113.289 52.4649 111.788C51.6488 110.679 50.9505 109.729 50.5995 109.239C50.2585 108.762 50.2372 108.756 48.251 108.224C46.4386 107.738 42.9901 106.814 36.1694 104.692C36.1501 104.692 32.0086 103.394 30.8695 102.892C31.1702 100.345 31.2428 100.38 31.4325 100.472C31.4487 100.479 31.4659 100.488 31.484 100.495C39.6602 103.649 47.0229 105.417 50.6399 106.286C51.7718 106.558 52.5369 106.741 52.8454 106.852C53.1303 106.954 54.1886 108.406 55.3868 110.05C56.3622 111.388 57.4304 112.853 58.2496 113.822C58.6864 114.337 58.9031 114.417 62.1786 115.621C62.4403 115.717 62.7216 115.82 63.0241 115.932C69.7277 118.4 70.5027 118.53 70.517 118.718C70.5198 118.757 70.4911 118.797 70.4746 118.861C70.3602 119.373 70.3845 119.905 70.5449 120.403C70.7053 120.903 70.9961 121.349 71.3871 121.698C71.7781 122.046 72.2551 122.285 72.7688 122.387C73.2826 122.49 73.8145 122.454 74.3094 122.281C74.8044 122.109 75.2444 121.808 75.5841 121.41C75.9236 121.011 76.1505 120.529 76.2412 120.013C76.3319 119.496 76.2832 118.966 76.1 118.475C75.9167 117.984 75.6057 117.551 75.1991 117.221C74.6526 116.783 73.9699 116.551 73.27 116.565C72.57 116.579 71.8971 116.838 71.3686 117.297C70.8114 117.768 70.7867 118.065 70.6511 118.13C70.3447 118.277 69.4719 117.239 60.6054 114.355C59.9184 114.131 59.6025 114.123 59.3343 114.005C58.7421 113.746 58.3834 112.954 54.7748 108.133C54.2087 107.378 53.9407 106.96 53.5728 106.665C52.8176 106.062 51.6415 105.985 46.6016 104.611C46.3642 104.546 32.1154 100.233 31.398 99.9608C31.4045 99.8993 31.4103 99.8379 31.416 99.7764C31.4298 99.6282 31.4437 99.4792 31.4686 99.3325C31.7031 97.9591 31.7306 97.6688 31.8306 97.6411C31.8598 97.6327 31.895 97.6473 31.9433 97.6634C32.4335 97.8286 33.0525 98.0444 33.7287 98.281C35.5162 98.9062 37.7034 99.6704 38.9667 99.9923C40.4339 100.366 41.4924 100.661 42.283 100.881C44.4454 101.484 44.6038 101.528 45.6414 101.09C50.054 99.228 50.4049 98.3393 50.9248 98.2257C51.4176 98.1181 52.0624 98.708 56.4615 99.8256C57.4445 100.139 58.4562 100.353 59.4817 100.465C59.5214 100.468 59.5453 100.464 59.5662 100.47C59.7126 100.512 59.7129 101.054 63.932 107.755C64.2219 108.213 65.2153 108.508 66.2694 108.821C66.6116 108.923 66.9602 109.027 67.2931 109.138C71.6071 110.575 72.3393 110.427 72.4781 110.649C72.5103 110.701 72.5105 110.772 72.5161 110.888C72.528 111.531 72.7632 112.15 73.1813 112.64C73.5994 113.128 74.1745 113.456 74.808 113.567C75.4416 113.679 76.0941 113.567 76.6538 113.249C77.2135 112.932 77.6455 112.431 77.8759 111.83C79.1179 108.457 74.2444 106.453 72.7381 109.791C72.6733 109.935 72.6572 110.036 72.5984 110.083C72.3747 110.262 71.5326 109.669 65.0495 107.751C64.3836 107.554 64.0303 106.93 63.5664 106.096C61.9425 103.176 61.0551 101.79 60.6167 101.104C60.2133 100.474 60.1902 100.438 60.3235 100.348C60.5561 100.19 60.9593 99.9708 61.5938 99.6251C62.1116 99.344 62.7835 98.9784 63.6424 98.4937C64.5667 97.9714 65.1949 97.5974 65.6366 97.3339C66.624 96.7456 66.6792 96.7125 67.0274 96.8247C72.2433 98.5052 74.6027 99.0145 75.6576 99.2418C76.4624 99.4154 76.5079 99.4254 76.4833 99.6666C76.4296 100.194 76.5441 100.725 76.8105 101.183C77.077 101.641 77.4816 102.003 77.9665 102.217C78.4764 102.44 79.0464 102.485 79.5848 102.345C80.1233 102.205 80.5989 101.887 80.9352 101.444C81.2715 101.001 81.4489 100.457 81.4389 99.9009C81.4288 99.3448 81.232 98.8079 80.8799 98.377C80.4995 97.8793 79.9396 97.5497 79.3197 97.4599C78.6999 97.3692 78.0692 97.5244 77.5625 97.8931C76.9503 98.3831 76.7794 98.6988 76.688 98.8686C76.6075 99.0176 76.5886 99.0521 76.3835 98.9907C76.14 98.9208 75.3117 98.6581 74.241 98.3194C71.7892 97.5428 68.0659 96.363 67.1779 96.1672C66.1955 95.9498 60.779 99.2787 60.0178 99.8602C59.7148 100.091 59.6862 100.083 57.468 99.4446C56.9596 99.2987 56.3359 99.1189 55.5675 98.9016C55.4692 98.8739 51.8591 97.8478 51.5964 97.7372C51.0684 97.5159 50.8201 97.6527 49.5137 98.3731C49.1746 98.5598 48.7642 98.7864 48.2591 99.056C46.385 100.055 45.7792 100.362 45.4751 100.516C45.283 100.614 45.2112 100.65 45.0162 100.761C44.9775 100.783 44.9472 100.804 44.915 100.822C44.6361 100.972 44.205 100.837 36.9006 98.6274C32.7427 97.37 31.9195 97.2702 31.8672 97.0128C31.8442 96.8999 31.971 96.7563 32.0278 96.469C32.1413 95.8976 32.106 95.5396 32.2664 95.3868C32.6788 94.9928 34.3858 95.9552 43.2488 98.1381C43.3296 98.1581 43.3904 98.1734 43.452 98.1773C43.7751 98.198 44.1192 97.8869 47.4779 96.0704C50.2693 94.5603 50.2836 94.5665 50.4653 94.6394C50.4757 94.6433 50.4867 94.6479 50.4988 94.6525C52.6907 95.333 54.9191 95.8899 57.1735 96.3208C57.405 96.3707 57.5998 96.4199 57.7696 96.4621C58.4063 96.6219 58.6922 96.6933 59.2428 96.4084C65.9531 92.9297 66.5944 91.9196 66.887 92.0126C66.9501 92.0326 66.997 92.1032 67.085 92.2123C67.3878 92.5986 67.8051 92.879 68.2769 93.0134C68.7487 93.1478 69.2511 93.1294 69.712 92.9612C70.1729 92.793 70.5688 92.4834 70.8431 92.0771C71.1174 91.67 71.256 91.1869 71.2391 90.6968C71.2222 90.206 71.0507 89.7337 70.7491 89.3465C70.4474 88.9594 70.0311 88.6783 69.5597 88.5424C69.0883 88.4056 68.5859 88.4225 68.1245 88.5892C67.663 88.7559 67.2661 89.0639 66.9905 89.4702C66.5056 90.1169 66.5828 90.7245 66.6352 91.1377C66.6674 91.392 66.6903 91.5725 66.5658 91.6408C59.8125 95.373 59.3031 96.002 58.7625 96.0305C58.6598 96.0358 58.556 96.0189 58.4079 95.9982C57.4491 95.863 53.2501 94.7562 52.4578 94.5473C52.3906 94.5296 52.348 94.5189 52.3338 94.515C50.1835 93.9551 50.0859 94.0058 49.5657 94.2754C49.5325 94.293 49.4976 94.3107 49.4604 94.3299C45.2688 96.4544 44.4205 97.3738 43.4836 97.4752C42.3036 97.6027 40.983 96.4329 32.6638 94.7378C32.5607 94.7163 32.4859 94.7186 32.4436 94.6832C32.3337 94.5895 32.4437 94.237 32.8497 92.5364C34.3467 85.7895 36.4445 79.1896 39.1181 72.8165C40.2272 70.2971 41.2242 69.4154 47.567 69.4568C52.8014 69.4941 59.2919 70.3195 66.0405 71.545C66.0321 71.2866 66.0292 71.0279 66.0319 70.7691C61.4811 69.925 57.2984 69.3195 54.0067 69.1212C53.5691 69.0948 52.9498 69.0643 52.4569 69.04C52.046 69.0198 51.7229 69.0039 51.6663 68.9983C50.3732 68.8632 49.0727 68.8119 47.7729 68.8447C47.6327 68.8447 47.4912 68.8444 47.3484 68.8441C44.269 68.8383 40.6582 68.8315 39.2202 71.4961C34.4511 80.3292 30.8787 96.2931 29.5192 107.013C29.3913 108.023 29.2666 108.987 29.1472 109.912C26.646 129.272 26.464 130.681 47.5732 139.802C56.7332 143.742 66.1831 146.97 75.8389 149.459C80.8968 150.82 90.2229 152.531 90.4695 152.537C90.5655 152.54 90.7399 152.562 90.9757 152.592C92.4028 152.776 96.0635 153.249 97.92 151.348C98.1112 151.152 98.6765 151.212 99.43 151.292C101.067 151.465 103.592 151.732 105.106 149.679C106.939 147.195 109.431 138.874 110.318 135.885C110.655 134.751 110.865 133.927 111.019 133.327C111.382 131.909 111.425 131.738 112.061 131.648C113.69 131.418 114.7 129.794 115.23 128.23C116.689 123.919 118.319 118.188 118.272 113.636C118.258 112.279 117.558 111.705 117.068 111.305C116.77 111.061 116.551 110.881 116.613 110.628C117.19 108.305 118.299 99.7503 118.649 96.6242C119.817 86.3072 115.735 84.8494 109.931 82.7763C109.542 82.6373 109.145 82.4952 108.741 82.3477C108.741 82.3477 103.784 80.5918 100.345 79.4288C100.228 79.6554 100.107 79.8791 99.9823 80.0987C103.811 81.3592 109.316 83.1926 110.404 83.5866C113.087 84.5552 115.762 85.7419 116.958 87.6345C117.769 88.9172 117.873 89.779 118.032 91.1055C118.049 91.2414 118.065 91.382 118.084 91.5279C118.56 95.3446 116.075 109.106 115.228 113.044H115.223C115.145 113.408 115.128 113.61 115.02 113.703C114.852 113.849 114.463 113.74 113.288 113.587C113.286 113.587 113.308 113.487 113.348 113.299C113.775 111.314 116.306 99.5422 115.495 92.7584C115.432 91.8367 115.187 90.9373 114.77 90.1131C114.354 89.2889 113.776 88.5569 113.071 87.9601C110.758 86.0353 107.752 85.0176 104.907 84.0559C104.563 83.9392 104.221 83.824 103.883 83.7072C102.962 83.3908 101.088 82.8132 98.665 82.0981C97.5351 83.5882 96.1941 84.8739 94.6955 85.9247C100.598 87.5784 105.061 88.8219 105.857 89.0255C106.758 89.2559 106.973 89.8158 105.342 89.547C103.808 89.2935 100.481 88.4556 93.6932 86.5783C91.6354 87.8234 89.325 88.6483 86.8847 88.984ZM66.2756 73.9309C61.0182 72.9211 55.7321 72.0561 50.3829 71.7811C40.8209 71.2887 41.4139 72.7028 46.5931 75.2682C53.6414 78.7552 63.1618 82.1741 72.754 85.0767C72.0284 84.4876 71.3476 83.8416 70.7183 83.145C69.6869 82.0021 68.8071 80.7362 68.0977 79.3781C63.7088 78.1015 58.8542 76.5929 57.9309 75.9303C57.8973 75.9072 57.873 75.8729 57.8624 75.8335C57.8518 75.7942 57.8555 75.7523 57.8728 75.7155C57.8902 75.6785 57.9201 75.649 57.9571 75.6321C57.9942 75.6152 58.036 75.612 58.0753 75.6231C58.0753 75.6231 61.9892 76.7268 67.5796 78.3015C67.395 77.8833 67.2259 77.4577 67.073 77.0255C66.7161 76.017 66.4497 74.9813 66.2756 73.9309ZM106.415 145.107C107.161 142.889 110.296 133.254 110.431 131.919H110.435C110.451 131.762 110.361 131.749 109.567 131.635C109.436 131.615 109.286 131.594 109.115 131.568C108.898 131.535 108.802 131.488 108.745 131.517C108.685 131.547 108.666 131.658 108.596 131.952C107.986 134.476 104.514 146.675 102.72 147.947C102.341 148.218 101.909 148.405 101.452 148.496C100.995 148.588 100.525 148.582 100.071 148.478C99.8402 148.424 99.7611 148.608 99.5998 148.982C99.4523 149.324 99.2365 149.824 98.7725 150.449C98.622 150.651 98.877 150.662 100.094 150.718C100.426 150.733 100.83 150.751 101.318 150.778C101.439 150.767 101.558 150.758 101.673 150.748C103.553 150.592 104.599 150.505 106.415 145.107ZM117.544 115.992C117.567 115.702 117.588 115.423 117.654 115.013H117.659C117.8 114.414 117.77 113.787 117.574 113.204C117.377 112.621 117.022 112.104 116.548 111.713C116.459 111.622 116.426 111.685 116.399 111.768C116.376 111.824 116.355 111.882 116.338 111.941C116.094 113.173 115.997 113.505 116.093 113.576C116.135 113.608 116.216 113.589 116.338 113.574C116.97 113.497 116.986 114.102 116.261 114.265C115.311 114.478 113.064 114.276 109.223 113.855C103.293 113.204 99.1973 112.255 96.3047 111.584C91.1093 110.38 89.7951 110.076 88.7044 114.019C88.6722 114.135 88.633 114.276 88.5884 114.437C88.0531 116.362 86.6985 121.228 86.7204 122.667C86.619 124.471 87.9448 125.57 89.6392 126.212C97.1235 129.048 109.532 131.117 111.549 130.905C113.976 130.646 114.649 128.126 115.256 125.85C115.31 125.646 115.364 125.444 115.419 125.246C117.378 118.127 117.466 116.992 117.544 115.992ZM58.4882 132.941C58.2405 132.886 57.984 132.885 57.7358 132.938L57.7396 132.939C57.5024 132.967 57.2731 133.042 57.0652 133.161C56.8574 133.278 56.6751 133.436 56.5289 133.625C56.3827 133.814 56.2756 134.031 56.2138 134.262C56.152 134.493 56.1367 134.734 56.1689 134.97C56.8686 137.405 59.9602 136.836 59.8772 134.546C59.8586 134.293 59.7861 134.046 59.6645 133.824C59.5428 133.601 59.3749 133.407 59.172 133.255C58.9691 133.102 58.736 132.996 58.4882 132.941ZM49.3529 119.923C51.9928 119.868 51.6172 116.126 49.3897 116.335C48.9169 116.343 48.4656 116.534 48.1315 116.869C47.7975 117.204 47.6072 117.655 47.6008 118.128C47.6009 118.597 47.7842 119.047 48.1115 119.382C48.4389 119.718 48.8844 119.911 49.3529 119.923ZM67.5412 125.956C64.7508 125.93 64.4719 130.288 67.6342 130.38C68.2009 130.356 68.7374 130.118 69.134 129.712C69.5307 129.306 69.7576 128.765 69.7687 128.198C69.7762 127.903 69.7238 127.609 69.6148 127.335C69.5057 127.061 69.3421 126.811 69.1339 126.601C68.9258 126.392 68.6774 126.226 68.4036 126.116C68.1299 126.004 67.8366 125.951 67.5412 125.956ZM71.6816 117.853C71.2605 118.279 71.024 118.853 71.023 119.452C71.0403 120.043 71.283 120.605 71.7012 121.023C72.1194 121.441 72.6816 121.684 73.2727 121.701C73.577 121.707 73.8795 121.652 74.1619 121.538C74.4443 121.424 74.7008 121.255 74.916 121.039C75.1313 120.824 75.3008 120.568 75.4144 120.286C75.528 120.003 75.5833 119.701 75.577 119.397C75.5615 118.798 75.311 118.23 74.8798 117.815C74.4486 117.399 73.8712 117.171 73.2727 117.178C72.6742 117.186 72.1026 117.428 71.6816 117.853ZM75.2674 112.898C77.8068 113.024 78.3337 108.98 75.3174 108.689C75.041 108.686 74.7667 108.736 74.5101 108.839C74.2535 108.942 74.0197 109.094 73.8219 109.288C73.6242 109.48 73.4664 109.711 73.3576 109.964C73.2488 110.219 73.1911 110.492 73.1878 110.768C73.1845 111.044 73.2358 111.319 73.3385 111.576C73.4412 111.832 73.5935 112.066 73.7866 112.263C73.9797 112.461 74.2099 112.619 74.4639 112.728C74.718 112.837 74.9911 112.895 75.2674 112.898ZM78.7709 98.0436C78.4393 98.0805 78.1247 98.2103 77.8636 98.4177C77.611 98.602 77.4102 98.8478 77.281 99.1328C77.1518 99.417 77.0986 99.7303 77.1264 100.041C77.1542 100.353 77.2622 100.652 77.4398 100.909C77.6174 101.166 77.8587 101.373 78.1399 101.509C78.4212 101.645 78.7331 101.707 79.045 101.687C79.3569 101.667 79.6583 101.566 79.9198 101.395C80.1813 101.224 80.3941 100.988 80.5372 100.71C80.6805 100.432 80.7493 100.122 80.737 99.8095C80.738 99.4761 80.6448 99.1489 80.468 98.8655C80.2913 98.5828 80.0382 98.3555 79.738 98.2103C79.4376 98.0644 79.1024 98.0068 78.7709 98.0436ZM67.6786 89.534C67.3514 89.8558 67.1597 90.2905 67.1426 90.7491H67.1441C67.1572 91.2107 67.3502 91.6485 67.6819 91.9688C68.0136 92.2899 68.4577 92.4681 68.9192 92.4658C69.7295 92.6032 70.642 91.6477 70.6251 90.7491C70.5978 90.3005 70.4079 89.8765 70.0907 89.5578C69.7736 89.239 69.351 89.047 68.9023 89.017C68.4434 89.027 68.0057 89.2114 67.6786 89.534Z" fill="black"/>
<path d="M84.2 52.163C104.938 52.9264 109.709 78.8602 92.9884 87.5988C90.3784 88.9721 87.4819 89.711 84.5332 89.7564C81.5844 89.8009 78.6665 89.1511 76.0159 87.8584C73.3653 86.5649 71.0566 84.6662 69.2768 82.3143C67.4971 79.9632 66.2964 77.2252 65.772 74.3231C63.6229 62.5606 73.2255 51.7589 84.2 52.163ZM83.3436 89.1227C93.0137 89.6742 101.624 82.6162 102.441 71.8683C102.657 61.1151 94.8218 53.3919 85.3083 52.8043C82.9152 52.6604 80.5172 52.9911 78.2524 53.7773C75.9876 54.5636 73.9005 55.7899 72.1113 57.3857C70.3221 58.9815 68.8662 60.9153 67.8272 63.0759C66.7882 65.2365 66.1866 67.5812 66.0571 69.9752C65.9276 72.3691 66.2727 74.7651 67.0726 77.0251C67.8724 79.2852 69.1112 81.365 70.7179 83.1446C72.3244 84.9235 74.267 86.3683 76.4338 87.3945C78.6005 88.4199 80.9489 89.0075 83.3436 89.1227Z" fill="black"/>
<path d="M76.0745 83.9644C72.6817 81.8821 70.2381 78.5553 69.2661 74.695C68.2941 70.8347 68.8708 66.7473 70.873 63.3066C78.0462 50.9772 96.508 54.3968 98.9328 68.1993C101.289 81.6225 86.8716 90.6115 76.0745 83.9644ZM69.661 74.1897C70.235 76.6175 71.4128 78.8611 73.0854 80.7123C74.758 82.5634 76.8709 83.9621 79.2283 84.7786C92.9486 89.4332 104.294 73.7311 95.7022 62.1399C86.6688 49.9541 66.2207 58.2618 69.661 74.1897Z" fill="black"/>
<path d="M79.4765 78.3985C76.9011 78.261 77.1507 78.4392 77.4649 75.0612C77.7398 72.094 78.3097 72.4297 76.3004 72.899C75.1637 73.1647 74.9394 73.27 74.967 72.6133C74.9802 71.4185 75.1395 70.2299 75.4417 69.0739C75.4581 68.9764 75.5015 68.8853 75.5671 68.8113C75.6327 68.7373 75.7178 68.6832 75.8127 68.6553C78.2706 67.7098 78.5571 68.1099 78.6493 67.6875C80.3552 59.8683 80.5695 59.6994 81.4305 59.6571C82.8697 59.5885 84.3116 59.6052 85.7487 59.707C86.2526 59.7424 86.3455 60.0504 86.3255 60.1502C85.5697 63.8839 85.1734 65.4232 85.1734 65.7296C85.5774 65.7074 84.8024 65.8318 88.1198 65.0284C88.5807 64.917 88.6183 65.3886 88.5369 65.861C87.7857 70.1999 88.6598 69.2675 84.6634 70.6446C84.3185 70.7637 84.0712 70.7261 84.0051 71.2007C83.893 72.0126 83.6887 72.5265 83.6349 73.0849C83.5719 73.7316 83.2862 73.1248 92.0778 73.3591C93.1907 73.3883 92.9787 73.7685 92.6346 75.2632C91.8604 78.6197 92.0908 78.2288 90.2482 78.3355C86.6618 78.5619 83.0653 78.5829 79.4765 78.3985ZM91.5255 77.6066C91.6699 77.0943 92.3512 74.6879 92.4549 74.1656C92.5417 73.727 92.8144 73.8322 89.8388 73.7047C89.5753 73.6932 87.8732 73.7984 85.0183 73.823C82.4114 73.846 83.1487 74.194 83.5627 70.9734C83.6326 70.4265 83.8999 70.3735 85.4061 69.8612C88.0998 68.9449 87.2496 69.4902 87.6075 68.3112C87.8763 67.4286 87.9093 66.5069 88.0891 65.6098C88.1782 65.1666 87.2135 65.7634 85.052 66.3848C84.2732 66.6083 84.4844 66.2888 85.6266 61.4806C85.9338 60.1825 85.9976 60.1863 85.6773 60.1641C85.4676 60.1495 83.3131 60.1264 83.1034 60.1249C80.6839 60.1095 81.078 60.0481 80.6563 61.5266C78.3927 69.4802 80.2261 67.795 76.8158 68.8189C75.9947 69.0662 75.7489 68.3772 75.4824 72.008C75.4678 72.2139 75.3119 72.4051 75.4102 72.6225C78.0286 72.0387 78.3581 71.7776 78.3044 72.4189C78.2276 73.3237 77.9864 74.9867 77.8635 75.8753C77.5916 77.837 77.567 77.7495 78.1269 77.7794C84.022 78.089 91.4026 78.0513 91.527 77.6066H91.5255Z" fill="black"/>
<path d="M57.279 20.6324C81.6697 22.1271 81.9032 53.7125 61.3115 57.9616C58.5237 58.5749 55.6328 58.5444 52.8586 57.8728C50.0843 57.2011 47.4997 55.9058 45.3011 54.0854C43.1026 52.2649 41.348 49.9673 40.1706 47.3669C38.9934 44.7666 38.4243 41.9321 38.5069 39.0789C38.566 35.0449 40.2113 30.1691 43.1922 27.0967C47.641 22.4989 50.9039 21.0687 57.279 20.6324ZM57.3182 57.7942C59.7814 57.8212 62.2242 57.3437 64.4961 56.3911C66.7678 55.4384 68.8206 54.0309 70.5279 52.2551C72.2353 50.4793 73.5611 48.3727 74.4236 46.0652C75.2862 43.7577 75.6672 41.2981 75.5434 38.8377C75.4035 35.2626 74.2153 31.8075 72.1268 28.9025C70.0384 25.9974 67.1417 23.7706 63.7973 22.4991C60.453 21.2276 56.8086 20.9677 53.3177 21.7516C49.8267 22.5355 46.6433 24.3285 44.1636 26.9077C41.6839 29.4869 40.0174 32.7383 39.3714 36.2574C38.7254 39.7765 39.1284 43.4079 40.5304 46.6996C41.9323 49.9914 44.2713 52.7982 47.2563 54.7709C50.2411 56.7435 53.7403 57.7949 57.3182 57.7942Z" fill="black"/>
<path d="M70.3462 31.8609C72.2898 35.3182 72.8278 39.3909 71.8487 43.2343C70.8697 47.0776 68.4486 50.3966 65.0879 52.5026C54.9852 58.7763 42.1888 51.2137 41.8839 40.8215C41.3792 23.4972 62.5601 18.3556 70.3462 31.8609ZM60.1283 53.8414C67.8899 51.895 71.8186 45.6996 71.8501 39.3314C71.8962 29.8839 62.1253 22.5394 53.1717 25.303C49.3213 26.492 45.7881 28.6787 43.8294 32.9678C38.0811 45.5514 49.8735 56.4122 60.1283 53.8414Z" fill="black"/>
<path d="M60.0968 48.9058C59.0083 48.7942 57.9406 48.5316 56.9246 48.1255C56.7095 48.0202 56.8247 48.0863 56.198 49.5641C55.8907 50.2853 55.6004 51.164 54.9928 50.9175C52.1962 49.7822 52.4044 50.316 53.7301 46.9626C53.7915 46.8089 53.5457 46.7752 53.4228 46.7199C53.2623 46.643 53.2946 46.6154 52.6809 47.9772C52.028 49.4266 52.0894 49.6225 51.6432 49.5303C51.3836 49.4773 49.8704 48.7891 49.6331 48.67C49.2621 48.4849 49.249 48.3897 49.3512 48.0248C49.5889 47.2216 49.8992 46.4415 50.2783 45.6944C50.4089 45.4325 50.5087 45.5931 47.3933 44.2758C46.2143 43.7773 46.4647 43.5338 47.5969 41.1266C47.8342 40.622 47.9679 40.7549 49.8021 41.4715C51.3382 42.0714 49.905 42.2726 51.8713 37.9483C52.0733 37.5035 53.2631 34.743 54.0988 32.885C54.1817 32.6999 54.3346 32.8266 52.1709 31.8189C51.7461 31.6207 51.6962 31.4856 51.8168 30.974C52.0364 30.197 52.3621 29.4539 52.7846 28.7657C52.9804 28.4117 53.0465 28.298 54.8983 29.0031C56.7932 29.7251 56.6719 29.9563 56.8078 29.5799C57.8632 26.6566 57.7088 26.9031 59.2757 27.5015C59.7245 27.6467 60.159 27.8329 60.5738 28.0576C60.8103 28.2442 60.755 28.1129 59.6651 31.0239C59.596 31.2098 60.1828 31.3942 60.2212 31.1929C60.3834 30.5897 60.6052 30.0041 60.8833 29.4447C61.2627 28.5161 61.4402 28.4385 61.7919 28.4954C62.5534 28.659 63.273 28.9777 63.9057 29.4317C64.1269 29.679 63.9987 30.1291 63.8666 30.4978C63.1031 32.6308 63.0839 32.3911 63.3681 32.504C68.6356 34.5979 67.1617 39.466 64.458 40.5152C64.1991 40.6158 63.9134 40.6174 64.0739 40.7956C65.3858 42.2281 65.9097 43.4839 65.1454 45.4172C63.9096 48.5471 61.6767 48.7645 60.0968 48.9058ZM63.5678 46.9856C65.5648 44.9555 65.2783 42.046 63.5063 40.8447C63.1653 40.6143 63.2913 40.377 63.471 40.3293C63.9365 40.2777 64.3831 40.1163 64.7741 39.8585C65.165 39.6007 65.4892 39.2537 65.72 38.8462C66.5603 37.3768 66.6716 35.4512 65.4496 34.2292C64.6867 33.5977 63.8196 33.1038 62.8872 32.7698C62.537 32.607 62.6115 32.4311 62.7521 32.0877C63.9418 29.182 64.1561 29.8603 61.8104 28.9539C61.56 28.8579 61.6406 28.8579 60.8011 30.7973C60.4117 31.6983 60.3917 31.9226 60.1214 31.7767C58.9546 31.1491 58.8356 31.9303 60.0929 28.5507C60.2074 28.2434 60.3664 28.364 58.4101 27.6751C58.1028 27.5675 58.2249 27.3939 57.3992 29.3441C57.0659 30.1322 57.082 30.4809 56.5221 30.2397C52.7899 28.6321 53.1763 28.7197 53.048 29.04C52.0364 31.5647 51.8644 31.2313 52.6548 31.567C54.9314 32.5348 54.8469 32.3351 54.4982 33.1032C50.7967 41.1735 51.2161 42.4424 50.5809 42.205C47.3104 40.9884 48.0677 41.0675 47.729 41.844C47.4801 42.4155 47.2727 43.0054 47.0431 43.5845C46.9809 43.7427 46.7097 43.5653 50.4396 45.1291C50.9573 45.3457 50.7837 45.4548 50.299 46.6653C49.63 48.3336 49.6039 48.2599 49.9488 48.4027C52.5826 49.4957 51.2453 49.5203 53.0634 46.2836C53.1402 46.1422 53.217 46.1108 54.0849 46.514C54.3054 46.6162 54.2163 46.8835 54.0849 47.2114C52.985 49.9566 53.028 49.6616 53.343 49.7937C55.2448 50.5918 55.1726 50.6018 55.307 50.3038C56.5628 47.5187 56.2287 48.097 56.4099 47.7414C56.8047 46.9341 60.4754 50.124 63.5678 46.9871V46.9856Z" fill="black"/>
<path d="M61.1961 43.1174C61.2522 44.1804 59.9257 45.3656 58.504 45.0883C57.0694 44.8053 55.6751 44.3468 54.3524 43.7234C54.0168 43.566 53.9569 43.4392 54.0613 43.0728C54.2746 42.169 54.5809 41.2897 54.9754 40.449C55.3656 39.7071 55.5729 38.8652 56.043 38.9935C56.9064 39.2325 57.7486 39.5425 58.5608 39.9206C60.13 40.6434 61.104 41.3685 61.1961 43.1174ZM58.8051 44.7066C59.1131 44.6795 59.4152 44.6052 59.7007 44.4861C59.9234 44.4234 60.1273 44.3067 60.2944 44.1465C60.4614 43.9863 60.5864 43.7875 60.6585 43.5675C61.4388 41.2241 58.5792 40.3884 56.2804 39.5074C56 39.3998 55.9478 39.5903 55.8126 39.8784C55.319 40.9406 54.8859 42.03 54.5153 43.1412C54.4823 43.2395 54.4999 43.2633 54.5836 43.2948C57.325 44.3993 56.6521 44.2887 58.8051 44.7066Z" fill="black"/>
<path d="M60.6066 38.1147C59.9153 38.2022 58.5673 37.6315 57.3414 37.1707C56.654 36.9126 56.727 36.6699 56.7946 36.4295C57.0851 35.3902 57.4957 34.3882 58.0181 33.4439C58.1717 33.1566 58.2724 33.1251 58.6095 33.2135C59.2349 33.4087 59.8363 33.6739 60.4023 34.0038C61.5913 34.5814 62.3294 35.0792 62.5145 35.8204C62.6099 36.1039 62.6312 36.407 62.5763 36.701C62.5214 36.995 62.3922 37.2701 62.2009 37.5C62.0097 37.73 61.7628 37.9072 61.4837 38.0148C61.2047 38.1223 60.9027 38.1568 60.6066 38.1147ZM62.1942 36.4794C62.216 36.2339 62.1767 35.9869 62.0796 35.7603C61.9826 35.5338 61.8309 35.3349 61.6381 35.1813C61.1466 34.7948 60.6011 34.4825 60.019 34.2542C58.3499 33.5975 58.4636 33.4593 58.3169 33.8395C57.2416 36.6384 57.0695 36.5547 57.3898 36.6891C58.5942 37.1914 61.122 38.352 61.8232 37.3381C62.0282 37.0943 62.1571 36.7958 62.1942 36.4794Z" fill="black"/>
<path d="M116.879 24.7527C116.883 27.4996 116.255 30.2107 115.044 32.6763C113.833 35.142 112.071 37.2962 109.895 38.9724C107.719 40.6488 105.186 41.8022 102.493 42.3438C99.8005 42.8854 97.0192 42.8005 94.3639 42.0958C91.7087 41.391 89.2515 40.0852 87.1816 38.2794C85.1117 36.4735 83.4847 34.216 82.4263 31.6811C81.3679 29.1462 80.9066 26.402 81.0778 23.6603C81.2491 20.9187 82.0485 18.2532 83.4141 15.8697C92.3377 0.0632283 116.862 6.26018 116.879 24.7527ZM98.9902 7.47991C87.4596 7.34856 78.6465 18.9882 82.5277 30.3283C86.6201 42.2867 101.842 45.962 110.661 37.5591C122.663 26.1245 114.08 7.65273 98.9902 7.47991Z" fill="black"/>
<path d="M98.8137 10.3261C101.681 10.3286 104.483 11.1795 106.868 12.7716C109.252 14.3637 111.112 16.6258 112.214 19.273C113.315 21.9202 113.609 24.8342 113.057 27.6478C112.506 30.4615 111.134 33.049 109.115 35.0846C107.096 37.1202 104.519 38.5129 101.71 39.0871C98.9012 39.6613 95.9848 39.3915 93.3287 38.3115C90.6727 37.2316 88.3961 35.3899 86.7845 33.0183C85.1732 30.6468 84.2995 27.8514 84.2738 24.9843C84.2326 23.0581 84.5796 21.1433 85.2942 19.354C86.0088 17.5647 87.0764 15.9377 88.4329 14.5698C89.7901 13.2019 91.4085 12.1212 93.192 11.3921C94.9755 10.663 96.8873 10.3005 98.8137 10.3261ZM89.3155 14.5506C86.8063 16.8187 85.209 19.923 84.8224 23.2832C84.4358 26.6434 85.2863 30.0294 87.2148 32.8081C94.7827 43.7027 112.398 39.088 112.728 24.6894C112.987 13.4131 98.584 6.17995 89.3155 14.5491V14.5506Z" fill="black"/>
<path d="M100.243 36.2422C98.5174 35.4211 95.2914 32.9786 93.2644 31.3157C91.8726 30.1735 92.0708 30.245 92.2137 29.9769C92.8166 28.8407 93.5816 27.7989 94.4864 26.8846C94.7169 26.6541 94.9542 26.7394 95.508 27.115C96.4873 27.7432 97.4282 28.429 98.3261 29.1689C100.822 31.0891 98.8776 30.6106 103.362 25.9375C103.918 25.3584 106.327 27.7502 106.77 28.2141C106.82 28.2506 106.862 28.2976 106.893 28.3519C106.923 28.4062 106.941 28.4665 106.946 28.5286C106.95 28.5906 106.941 28.6529 106.919 28.7111C106.897 28.7693 106.863 28.822 106.818 28.8655C105.757 30.3387 101.72 35.4373 100.243 36.2422ZM106.325 28.6865C106.564 28.3862 106.693 28.6566 103.729 26.2916C103.544 26.1434 103.729 25.9844 100.206 30.556C99.8346 31.0384 100.028 30.9662 97.9789 29.417C94.5563 26.8262 94.753 27.1234 94.6232 27.2909C94.4934 27.4583 93.9426 28.1888 92.673 29.9569C92.4771 30.2296 92.3657 30.0337 94.4212 31.5699C95.445 32.338 99.2601 35.2721 100.438 35.819C100.25 35.8228 101.126 35.223 106.325 28.6865Z" fill="black"/>
<path d="M105.632 18.7658C105.717 19.5646 103.984 21.441 103.361 22.153C103.105 22.4457 103.119 22.5064 102.726 22.2299C97.9325 18.8887 98.3719 18.6352 98.1023 18.7734C97.1529 20.307 96.086 21.7639 94.9093 23.1308C94.3179 23.8705 94.5406 23.8306 91.1011 21.3642C90.757 21.1177 90.6403 21.2536 92.4699 18.841C92.9983 18.1436 95.0138 15.6089 95.4754 15.0774C97.3641 12.8929 97.3073 13.0842 97.6745 13.2793C100.07 14.5582 105.005 17.8625 105.632 18.7658ZM105.274 18.9493C105.193 18.8341 105.351 18.9493 104.358 18.1928C102.21 16.5173 99.9257 15.0234 97.5293 13.7263C97.2028 13.5374 97.4118 13.3707 95.6498 15.5912C90.8991 21.5777 91.4253 21.0762 91.6926 21.2751C94.3809 23.2491 94.2902 23.3029 94.4738 23.0417C94.8179 22.5578 93.6113 24.283 96.7527 19.9878C97.9878 18.298 97.9049 18.1359 98.1952 18.3379C99.0447 18.9232 102.89 21.9257 103.003 21.9203C103.116 21.9149 105.136 19.1828 105.274 18.9493Z" fill="black"/>
<path d="M93.1143 25.4063C92.4807 26.6314 91.6465 27.7424 90.648 28.6937C90.565 28.7714 90.4583 28.8176 90.3446 28.8241C90.2317 28.8305 90.1196 28.7969 90.0289 28.729C89.1095 28.1487 88.2685 27.4539 87.5242 26.6613C87.1663 26.3318 87.1163 26.2005 89.2539 23.1927C89.2777 23.139 89.3138 23.0915 89.3584 23.0533C89.4037 23.0151 89.4559 22.9874 89.5128 22.972C89.5696 22.9565 89.6287 22.9539 89.6871 22.9641C89.7447 22.9744 89.7993 22.9973 89.8476 23.0314C91.115 23.5434 92.2364 24.3589 93.1143 25.4063ZM89.7155 23.4484C89.4083 23.7357 87.7147 26.1621 87.8337 26.3426C87.8883 26.4255 89.6526 27.8788 89.7248 27.941C90.2832 28.4018 90.3392 28.4356 90.4514 28.2912C92.6965 25.3249 92.7434 25.5515 92.41 25.2957C91.3692 24.5053 89.9606 23.5836 89.7155 23.4484Z" fill="black"/>
<path d="M110.684 23.0872C110.185 24.2118 109.495 25.2414 108.645 26.1304C108.474 26.3071 108.355 26.4614 108.148 26.3508C107.045 25.7792 106.053 25.0144 105.22 24.0927C105.158 24.0464 105.117 23.9778 105.105 23.9016C105.093 23.8254 105.111 23.7476 105.157 23.6848C105.674 22.5674 106.4 21.56 107.298 20.7177C107.611 20.4243 107.691 20.392 108.056 20.6309C109.097 21.2529 109.993 22.0905 110.684 23.0872ZM110.233 23.0987C109.427 22.3124 108.572 21.5791 107.671 20.9035C106.91 21.8083 106.204 22.7573 105.557 23.7455C105.414 23.9436 105.532 23.883 106.114 24.32C108.347 25.9975 108.276 26.0674 108.418 25.8477C109.19 24.6756 110.112 23.2969 110.233 23.0987Z" fill="black"/>
<path d="M98.5042 21.9303C99.641 22.4553 100.672 23.1842 101.545 24.081C101.73 24.2906 101.73 24.3306 101.571 24.561C99.4497 27.6272 99.313 27.4529 98.9458 27.1917C95.8489 24.9896 95.9004 25.1509 96.3735 24.4112C96.7829 23.7699 97.796 22.2345 98.5042 21.9303ZM99.3091 26.9121C99.4259 26.7662 99.6571 26.4113 99.8929 26.0987C101.346 24.1724 101.352 24.3782 101.026 24.1462C98.349 22.2429 98.5334 22.2621 98.3506 22.4941C97.7929 23.2 97.1216 24.0425 96.6815 24.6263C96.4956 24.8721 96.4127 24.7876 97.5349 25.6148C97.5771 25.6494 99.1194 26.7885 99.3091 26.9121Z" fill="black"/>
<path d="M127.789 38.6468C148.535 38.3112 154.688 63.9423 138.449 73.5611C135.916 75.0716 133.062 75.9639 130.12 76.1659C127.178 76.3677 124.23 75.8735 121.514 74.7232C118.799 73.5728 116.392 71.7988 114.49 69.5449C112.589 67.2909 111.244 64.6206 110.567 61.7502C107.798 50.1236 116.805 38.8242 127.789 38.6468ZM128.894 75.5966C138.581 75.6334 146.805 68.1307 147.048 57.3544C146.694 46.6134 138.458 39.3081 128.928 39.2275C126.53 39.2098 124.152 39.6666 121.932 40.5715C119.711 41.4764 117.691 42.8116 115.989 44.5001C114.286 46.1887 112.934 48.1974 112.011 50.4105C111.088 52.6236 110.612 54.9975 110.609 57.3954C110.607 59.7933 111.079 62.1681 111.998 64.3829C112.917 66.5977 114.265 68.6089 115.965 70.3007C117.664 71.9924 119.682 73.3312 121.901 74.2403C124.119 75.1493 126.496 75.6105 128.894 75.5973V75.5966Z" fill="black"/>
<path d="M121.364 70.8325C117.864 68.9337 115.247 65.741 114.071 61.9372C112.895 58.1335 113.254 54.0206 115.071 50.4781C121.583 37.7869 140.194 40.2233 143.35 53.8746C146.42 67.1556 132.5 76.8965 121.364 70.8325ZM114.451 61.4118C115.154 63.8049 116.45 65.9818 118.218 67.7407C119.986 69.4997 122.17 70.7837 124.567 71.4738C138.518 75.3911 149.014 59.1076 139.815 47.9941C130.141 36.3068 110.16 45.689 114.448 61.4118H114.451Z" fill="black"/>
<path d="M136.384 58.8117C136.416 59.2126 135.717 59.3947 128.041 61.682C127.227 61.9247 121.309 55.5627 121.145 55.2946C120.919 54.9221 120.992 54.8806 121.959 53.763C123.816 51.6124 127.304 47.7182 129.511 45.9907C131.519 44.42 131.489 44.0705 131.822 44.7672C133.666 48.6422 136.002 57.0528 136.384 58.8117ZM128.992 53.7077C129.453 53.6785 129.253 54.038 129.904 51.1822C131.418 44.5406 131.291 45.2495 131.239 45.049C130.644 45.2119 122.13 53.9965 121.835 54.6901C121.993 54.7308 126.026 53.8982 128.992 53.7077ZM135.804 58.0966C135.748 57.701 131.788 45.4661 131.63 45.3401C131.519 45.4938 131.586 45.4868 131.537 45.6996C129.576 54.4121 129.45 53.6447 130.312 54.1394C134.082 56.3046 135.707 58.4468 135.804 58.0966ZM129.248 54.134C128.721 53.962 121.831 55.154 121.644 55.2055C121.737 55.4206 123.264 56.8 124.665 58.1949C127.661 61.1759 127.655 61.3057 127.786 61.1052C127.848 61.0276 129.01 54.8906 129.248 54.134ZM128.211 61.2281C130.445 60.5437 130.279 60.4055 135.835 58.8025C136.1 58.7257 136.096 58.7771 133.705 57.032C130.908 54.9912 130.762 54.9021 129.884 54.336C129.552 54.1225 129.693 53.9182 128.793 58.115C128.074 61.4647 128.121 61.096 128.209 61.2281H128.211Z" fill="black"/>
<path d="M120.731 56.4449C121.022 56.68 126.058 62.0343 127.146 63.0305C127.347 63.2149 135.2 60.3614 135.63 60.3384C136.015 60.3177 135.697 60.7332 135.434 61.0166C130.692 66.1352 130.086 66.4908 126.972 69.0101C125.989 69.8051 125.835 70.1223 125.568 69.557C123.588 65.4701 121.915 61.2416 120.562 56.9066C120.458 56.627 120.596 56.5563 120.731 56.4449ZM126.261 68.9971C129.104 66.6453 131.827 64.1524 134.42 61.5282C134.782 61.1702 135.12 60.8576 134.605 61.0351C127.105 63.6151 127.412 63.317 127.322 63.7341C126.109 69.3857 126.16 68.8189 126.261 68.9971ZM121.274 57.5925C121.241 57.6923 125.472 68.5616 125.806 68.9748C125.87 68.7705 126.069 67.5024 126.31 66.3364C126.895 63.5014 127.061 63.5406 126.818 63.2978C121.761 58.2384 121.736 57.9266 121.274 57.5925Z" fill="black"/>
</svg>
