<svg width="16" height="16" viewBox="0 0 16 16" fill="none" xmlns="http://www.w3.org/2000/svg">
  <path d="M14.5 2L8.5 6L9.5 3L14.5 2Z" fill="#E2761B"/>
  <path d="M1.5 2L7.5 6L6.5 3L1.5 2Z" fill="#E4761B"/>
  <path d="M12.5 10L11 12.5L14 13.5L15 10H12.5Z" fill="#E4761B"/>
  <path d="M1 10L2 13.5L5 12.5L3.5 10H1Z" fill="#E4761B"/>
  <path d="M5 7L4 9L7.5 9.5L7 6L5 7Z" fill="#E4761B"/>
  <path d="M11 7L9 6L8.5 9.5L12 9L11 7Z" fill="#E4761B"/>
  <path d="M5 12.5L7 11.5L5 10V12.5Z" fill="#D7C1B3"/>
  <path d="M9 11.5L11 12.5V10L9 11.5Z" fill="#D7C1B3"/>
  <path d="M7.5 6L8 9.5L7 9L7.5 6Z" fill="#233447"/>
  <path d="M8.5 6L9 9L8 9.5L8.5 6Z" fill="#233447"/>
  <path d="M6.5 7L5 9L7 9.5L6.5 7Z" fill="#CD6116"/>
  <path d="M9.5 7L9 9.5L11 9L9.5 7Z" fill="#CD6116"/>
  <path d="M5 10L7 11.5L7.5 10H5Z" fill="#E4751F"/>
  <path d="M9 11.5L11 10H8.5L9 11.5Z" fill="#E4751F"/>
  <path d="M8.5 9.5L9 9L7.5 9L8.5 9.5Z" fill="#F6851B"/>
  <path d="M7.5 9L6 9L7 9.5L7.5 9Z" fill="#F6851B"/>
  <path d="M9 9.5L9.5 9L8.5 9.5L9 9.5Z" fill="#F6851B"/>
</svg> 