<svg width="16" height="16" viewBox="0 0 16 16" fill="none" xmlns="http://www.w3.org/2000/svg">
<path fill-rule="evenodd" clip-rule="evenodd" d="M12.6667 1.33325C11.1939 1.33325 10 2.52716 10 3.99992C10 5.47268 11.1939 6.66659 12.6667 6.66659C14.1394 6.66659 15.3333 5.47268 15.3333 3.99992C15.3333 2.52716 14.1394 1.33325 12.6667 1.33325Z" fill="#8F8E8E"/>
<path d="M8.66651 4C8.66651 3.27143 8.86131 2.58835 9.20164 2L4.00114 2.00001C2.52838 2.00001 1.33447 3.19392 1.33447 4.66667V10.0239C1.33447 11.4966 2.52838 12.6905 4.00114 12.6905H5.76755L7.57004 14.2014C7.81664 14.4081 8.17577 14.4092 8.42364 14.2039L10.2503 12.6905H12.0012C13.4739 12.6905 14.6678 11.4966 14.6678 10.0238V7.46413C14.0792 7.80493 13.3956 8 12.6665 8C10.4574 8 8.66651 6.20914 8.66651 4Z" fill="#BCBBBB"/>
</svg>
