<svg width="16" height="16" viewBox="0 0 16 16" fill="none" xmlns="http://www.w3.org/2000/svg">
<path d="M12.5 4H8.5C7.39543 4 6.5 4.89543 6.5 6V12C6.5 13.1046 7.39543 14 8.5 14H12.5C13.6046 14 14.5 13.1046 14.5 12V6C14.5 4.89543 13.6046 4 12.5 4Z" fill="#8F8E8E"/>
<path d="M9.5 0.875H3.5C2.05025 0.875 0.875 2.05025 0.875 3.5V12.5C0.875 13.9497 2.05025 15.125 3.5 15.125H9.5C10.9497 15.125 12.125 13.9497 12.125 12.5V3.5C12.125 2.05025 10.9497 0.875 9.5 0.875Z" fill="#BCBBBB" stroke="white" stroke-width="1.25"/>
<path d="M3.5 6.5H9.5" stroke="white" stroke-width="1.25" stroke-linecap="round"/>
<path d="M3.5 9H9.5" stroke="white" stroke-width="1.25" stroke-linecap="round"/>
<path d="M3.5 9H6.5" stroke="white" stroke-width="1.25" stroke-linecap="round"/>
</svg>
