<svg width="16" height="16" viewBox="0 0 16 16" fill="none" xmlns="http://www.w3.org/2000/svg">
<path fill-rule="evenodd" clip-rule="evenodd" d="M13.3332 3.66659C13.3332 3.16413 13.0462 2.77556 12.7299 2.50847C12.4105 2.23878 11.9878 2.02593 11.5239 1.86025C10.5902 1.5268 9.34424 1.33325 7.99984 1.33325C6.65544 1.33325 5.40944 1.5268 4.47578 1.86025C4.01186 2.02593 3.5892 2.23878 3.2698 2.50847C2.95349 2.77556 2.6665 3.16413 2.6665 3.66659V6.66658C2.6665 7.16905 2.95349 7.55758 3.2698 7.82472C3.5892 8.09438 4.01186 8.30725 4.47578 8.47292C5.40944 8.80639 6.65544 8.99992 7.99984 8.99992C9.34424 8.99992 10.5902 8.80639 11.5239 8.47292C11.9878 8.30725 12.4105 8.09438 12.7299 7.82472C13.0462 7.55758 13.3332 7.16905 13.3332 6.66658V3.66659ZM4.13 3.52721C4.04678 3.59748 4.01531 3.64446 4.00406 3.66659C4.01531 3.68871 4.04678 3.73569 4.13 3.80596C4.28289 3.93505 4.54366 4.08135 4.92423 4.21727C5.67957 4.48703 6.7669 4.66658 7.99984 4.66658C9.23277 4.66658 10.3201 4.48703 11.0754 4.21727C11.456 4.08135 11.7168 3.93505 11.8697 3.80596C11.9529 3.73569 11.9844 3.68871 11.9956 3.66659C11.9844 3.64446 11.9529 3.59748 11.8697 3.52721C11.7168 3.39812 11.456 3.25182 11.0754 3.1159C10.3201 2.84614 9.23277 2.66659 7.99984 2.66659C6.7669 2.66659 5.67957 2.84614 4.92423 3.1159C4.54366 3.25182 4.28289 3.39812 4.13 3.52721Z" fill="#BCBBBB"/>
<path d="M11.9724 9.72886C12.4262 9.56673 12.9056 9.34692 13.3332 9.04272V12.3335C13.3332 12.836 13.0462 13.2245 12.7299 13.4917C12.4105 13.7613 11.9878 13.9742 11.5239 14.1399C10.5902 14.4733 9.34424 14.6669 7.99984 14.6669C6.65544 14.6669 5.40944 14.4733 4.47578 14.1399C4.01186 13.9742 3.5892 13.7613 3.2698 13.4917C2.95349 13.2245 2.6665 12.836 2.6665 12.3335V9.04272C3.09404 9.34692 3.57344 9.56673 4.02733 9.72886C5.13932 10.126 6.544 10.3335 7.99984 10.3335C9.4557 10.3335 10.8604 10.126 11.9724 9.72886Z" fill="#8F8E8E"/>
</svg>
