<svg width="16" height="16" viewBox="0 0 16 16" fill="none" xmlns="http://www.w3.org/2000/svg">
<path d="M4.5 7C5.88071 7 7 5.88071 7 4.5C7 3.11929 5.88071 2 4.5 2C3.11929 2 2 3.11929 2 4.5C2 5.88071 3.11929 7 4.5 7Z" fill="#8F8E8E"/>
<path d="M13.5688 5.2155C14.1584 4.92067 14.1584 4.07923 13.5688 3.78441L10.2445 2.12226C9.54728 1.77365 8.81403 2.52646 9.18083 3.21427L9.66578 4.12348C9.79123 4.35877 9.79123 4.64112 9.66578 4.87642L9.18083 5.7856C8.81403 6.47345 9.54728 7.22625 10.2445 6.87765L13.5688 5.2155Z" fill="#BCBBBB"/>
<path d="M4.5 7C5.88071 7 7 5.88071 7 4.5C7 3.11929 5.88071 2 4.5 2C3.11929 2 2 3.11929 2 4.5C2 5.88071 3.11929 7 4.5 7Z" fill="#8F8E8E"/>
<path d="M13.5688 5.2155C14.1584 4.92067 14.1584 4.07923 13.5688 3.78441L10.2445 2.12226C9.54728 1.77365 8.81403 2.52646 9.18083 3.21427L9.66578 4.12348C9.79123 4.35877 9.79123 4.64112 9.66578 4.87642L9.18083 5.7856C8.81403 6.47345 9.54728 7.22625 10.2445 6.87765L13.5688 5.2155Z" fill="#BCBBBB"/>
<path d="M2.431 10.7844C1.84136 11.0793 1.84136 11.9207 2.431 12.2155L5.75526 13.8777C6.45251 14.2263 7.18576 13.4735 6.81896 12.7856L6.33401 11.8764C6.20856 11.6412 6.20856 11.3588 6.33401 11.1235L6.81896 10.2143C7.18576 9.52646 6.45251 8.77366 5.75526 9.12226L2.431 10.7844Z" fill="#BCBBBB"/>
<path d="M11.5 14C12.8807 14 14 12.8807 14 11.5C14 10.1193 12.8807 9 11.5 9C10.1193 9 9 10.1193 9 11.5C9 12.8807 10.1193 14 11.5 14Z" fill="#8F8E8E"/>
<path d="M2.431 10.7844C1.84136 11.0793 1.84136 11.9207 2.431 12.2155L5.75526 13.8777C6.45251 14.2263 7.18576 13.4735 6.81896 12.7856L6.33401 11.8764C6.20856 11.6412 6.20856 11.3588 6.33401 11.1235L6.81896 10.2143C7.18576 9.52646 6.45251 8.77366 5.75526 9.12226L2.431 10.7844Z" fill="#BCBBBB"/>
<path d="M11.5 14C12.8807 14 14 12.8807 14 11.5C14 10.1193 12.8807 9 11.5 9C10.1193 9 9 10.1193 9 11.5C9 12.8807 10.1193 14 11.5 14Z" fill="#8F8E8E"/>
</svg>
