<svg width="16" height="16" viewBox="0 0 16 16" fill="none" xmlns="http://www.w3.org/2000/svg">
<g clip-path="url(#clip0_101_1604)">
<path d="M8.03002 1.83632C8.03002 1.02291 7.37639 0.342582 6.57353 0.473178C5.01933 0.72599 3.52711 1.45162 2.32865 2.65008C1.20436 3.77437 0.49618 5.1572 0.204117 6.6072C0.0398775 7.4226 0.727317 8.10562 1.55909 8.10562H8.03002V14.3872C8.03002 15.2308 8.73209 15.9224 9.55477 15.736C10.938 15.4227 12.2522 14.7276 13.3292 13.6506C14.4805 12.4993 15.1954 11.0769 15.474 9.58887C15.6259 8.77788 14.9409 8.10562 14.1159 8.10562H8.03002V1.83632Z" fill="#BCBBBB"/>
<path d="M8 11.375C9.86396 11.375 11.375 9.86396 11.375 8C11.375 6.13604 9.86396 4.625 8 4.625C6.13604 4.625 4.625 6.13604 4.625 8C4.625 9.86396 6.13604 11.375 8 11.375Z" fill="#8F8E8E" stroke="white" stroke-width="1.25"/>
</g>
<defs>
<clipPath id="clip0_101_1604">
<rect width="16" height="16" fill="white"/>
</clipPath>
</defs>
</svg>
