<svg width="16" height="16" viewBox="0 0 16 16" fill="none" xmlns="http://www.w3.org/2000/svg">
<g clip-path="url(#clip0_101_1598)">
<path d="M13.6426 8.003L15.2568 2.5145C15.6142 1.29954 14.4853 0.170702 13.2704 0.528044L7.78185 2.14231C6.2858 2.58233 6.23889 4.68429 7.71382 5.19061L9.48821 5.79973C9.72163 5.87986 9.905 6.06323 9.98512 6.29664L10.5943 8.07103C11.1006 9.54596 13.2026 9.49906 13.6426 8.003Z" fill="#8F8E8E" stroke="white" stroke-width="1.6"/>
<path d="M13.6426 8.003L15.2568 2.5145C15.6142 1.29954 14.4853 0.170702 13.2704 0.528044L7.78185 2.14231C6.2858 2.58233 6.23889 4.68429 7.71382 5.19061L9.48821 5.79973C9.72163 5.87986 9.905 6.06323 9.98512 6.29664L10.5943 8.07103C11.1006 9.54596 13.2026 9.49906 13.6426 8.003Z" fill="#8F8E8E" stroke="white" stroke-width="1.6"/>
<path d="M2.39408 4.11553C7.30301 4.81555 11.1861 8.6986 11.8861 13.6075C12.0108 14.4823 11.2825 15.2028 10.3988 15.2028H5.59883C5.157 15.2028 4.80717 14.841 4.71985 14.4079C4.40301 12.8365 3.16515 11.5986 1.59372 11.2818C1.16061 11.1944 0.798828 10.8446 0.798828 10.4028V5.60278C0.798828 4.71913 1.51927 3.99078 2.39408 4.11553Z" fill="#BCBBBB"/>
</g>
<defs>
<clipPath id="clip0_101_1598">
<rect width="16" height="16" fill="white"/>
</clipPath>
</defs>
</svg>
