<svg width="40" height="40" viewBox="0 0 40 40" fill="none" xmlns="http://www.w3.org/2000/svg">
<circle cx="20" cy="20" r="20" fill="#212121"/>
<path d="M26.9272 15.5735C26.8057 15.6828 26.6478 15.7497 26.4837 15.7497H10.9042C10.3513 15.7497 10.0718 15.1178 10.4546 14.7471L13.0127 12.2802C13.1342 12.1647 13.2922 12.0979 13.4563 12.0979H29.0965C29.6555 12.0979 29.929 12.7359 29.5401 13.1065L26.9272 15.5735Z" fill="url(#paint0_linear_101_1788)"/>
<path d="M26.9272 27.732C26.8057 27.8412 26.6478 27.9021 26.4837 27.9021H10.9042C10.3513 27.9021 10.0718 27.2761 10.4546 26.9055L13.0127 24.4324C13.1342 24.317 13.2922 24.2563 13.4563 24.2563H29.0965C29.6555 24.2563 29.929 24.8881 29.5401 25.2589L26.9272 27.732Z" fill="url(#paint1_linear_101_1788)"/>
<path d="M26.9272 18.3502C26.8057 18.2409 26.6478 18.1801 26.4837 18.1801H10.9042C10.3513 18.1801 10.0718 18.8059 10.4546 19.1766L13.0127 21.6497C13.1342 21.759 13.2922 21.8258 13.4563 21.8258H29.0965C29.6555 21.8258 29.929 21.1938 29.5401 20.8232L26.9272 18.3502Z" fill="url(#paint2_linear_101_1788)"/>
<defs>
<linearGradient id="paint0_linear_101_1788" x1="10.2784" y1="24.6676" x2="30.1884" y2="23.8783" gradientUnits="userSpaceOnUse">
<stop stop-color="#599DB0"/>
<stop offset="1" stop-color="#47F8C3"/>
</linearGradient>
<linearGradient id="paint1_linear_101_1788" x1="10.2784" y1="25.3733" x2="30.0709" y2="24.7175" gradientUnits="userSpaceOnUse">
<stop stop-color="#C44FE2"/>
<stop offset="1" stop-color="#73B0D0"/>
</linearGradient>
<linearGradient id="paint2_linear_101_1788" x1="11.3964" y1="20.0031" x2="28.9688" y2="20.0031" gradientUnits="userSpaceOnUse">
<stop stop-color="#778CBF"/>
<stop offset="1" stop-color="#5DCDC9"/>
</linearGradient>
</defs>
</svg>
