<svg width="18" height="18" viewBox="0 0 18 18" fill="none" xmlns="http://www.w3.org/2000/svg">
<path d="M2.8125 4.875V12.9375C2.8125 14.1802 3.81986 15.1875 5.0625 15.1875H12.9375C14.1802 15.1875 15.1875 14.1802 15.1875 12.9375V8.8125C15.1875 7.56982 14.1802 6.5625 12.9375 6.5625H12.1875M2.8125 4.875C2.8125 5.80698 3.56802 6.5625 4.5 6.5625H12.1875M2.8125 4.875C2.8125 3.73592 3.73592 2.8125 4.875 2.8125H10.625C11.488 2.8125 12.1875 3.51206 12.1875 4.375V6.5625" stroke="#929796" stroke-width="1.5" stroke-linecap="square" stroke-linejoin="round"/>
<path d="M11.625 10.3125C11.9356 10.3125 12.1875 10.5644 12.1875 10.875C12.1875 11.1856 11.9356 11.4375 11.625 11.4375C11.3144 11.4375 11.0625 11.1856 11.0625 10.875C11.0625 10.5644 11.3144 10.3125 11.625 10.3125Z" fill="#929796" stroke="#929796" stroke-linejoin="round"/>
</svg>
