<svg width="20" height="20" viewBox="0 0 20 20" fill="none" xmlns="http://www.w3.org/2000/svg">
  <path d="M16.6667 5H3.33333C2.41667 5 1.66667 5.75 1.66667 6.66667V13.3333C1.66667 14.25 2.41667 15 3.33333 15H16.6667C17.5833 15 18.3333 14.25 18.3333 13.3333V6.66667C18.3333 5.75 17.5833 5 16.6667 5ZM16.6667 13.3333H3.33333V6.66667H16.6667V13.3333ZM15 9.16667C15 9.75 14.5 10.25 13.9167 10.25C13.3333 10.25 12.8333 9.75 12.8333 9.16667C12.8333 8.58333 13.3333 8.08333 13.9167 8.08333C14.5 8.08333 15 8.58333 15 9.16667Z" fill="#212121"/>
</svg> 